<svg width="30" height="30" viewBox="0 0 30 30" fill="none" xmlns="http://www.w3.org/2000/svg">
<path d="M26.285 18.9375C27.1755 16.3881 27.1755 13.612 26.285 11.0625L26.2499 10.9688C25.418 8.65169 23.8909 6.64799 21.8773 5.23149C19.8637 3.815 17.4618 3.05481 14.9999 3.05481C12.538 3.05481 10.1361 3.815 8.12249 5.23149C6.10889 6.64799 4.58179 8.65169 3.74987 10.9688L3.71472 11.0625C2.82426 13.612 2.82426 16.3881 3.71472 18.9375L3.74987 19.0313C4.58058 21.3488 6.10664 23.3533 8.1195 24.7709C10.1324 26.1884 12.5338 26.9498 14.9958 26.9511C17.4577 26.9524 19.8599 26.1935 21.8743 24.778C23.8886 23.3626 25.4167 21.3597 26.2499 19.043L26.285 18.9375ZM11.6835 19.4532H18.3163C17.6483 21.5977 16.5116 23.5196 14.9999 24.9961C13.4882 23.5196 12.3514 21.5977 11.6835 19.4532ZM11.3319 18.0469C10.9099 16.0376 10.9099 13.9625 11.3319 11.9532H18.6678C19.0898 13.9625 19.0898 16.0376 18.6678 18.0469H11.3319ZM4.453 15C4.45055 13.968 4.60061 12.9413 4.89831 11.9532H9.8905C9.51541 13.9671 9.51541 16.033 9.8905 18.0469H4.89831C4.60061 17.0588 4.45055 16.0321 4.453 15ZM18.3163 10.5469H11.6835C12.3514 8.40238 13.4882 6.48051 14.9999 5.00395C16.5116 6.48051 17.6483 8.40238 18.3163 10.5469ZM20.121 11.9532H25.1014C25.6955 13.941 25.6955 16.0591 25.1014 18.0469H20.121C20.4804 16.0316 20.4804 13.9685 20.121 11.9532ZM24.5624 10.5469H19.7928C19.192 8.3238 18.0713 6.27532 16.5233 4.57035C18.2534 4.82306 19.8936 5.50144 21.2967 6.54459C22.6999 7.58774 23.822 8.963 24.5624 10.5469ZM13.4764 4.57035C11.9284 6.27532 10.8078 8.3238 10.2069 10.5469H5.43737C6.17776 8.963 7.29989 7.58774 8.70302 6.54459C10.1062 5.50144 11.7464 4.82306 13.4764 4.57035ZM5.43737 19.4532H10.2069C10.8102 21.6788 11.9304 23.7305 13.4764 25.4414C11.7466 25.1836 10.1073 24.5019 8.70474 23.4571C7.30213 22.4123 6.17969 21.0368 5.43737 19.4532ZM16.5233 25.4414C18.0693 23.7305 19.1895 21.6788 19.7928 19.4532H24.5624C23.8201 21.0368 22.6976 22.4123 21.295 23.4571C19.8924 24.5019 18.2532 25.1836 16.5233 25.4414Z" fill="white"/>
</svg>
