<svg width="203" height="147" viewBox="0 0 203 147" fill="none" xmlns="http://www.w3.org/2000/svg">
<line y1="-5" x2="147" y2="-5" transform="matrix(0 -1 -1 0 193 147)" stroke="url(#paint0_linear_1493_3309)" stroke-opacity="0.5" stroke-width="10"/>
<line y1="-5" x2="137.982" y2="-5" transform="matrix(0 -1 -1 0 180.133 147)" stroke="url(#paint1_linear_1493_3309)" stroke-opacity="0.5" stroke-width="10"/>
<line y1="-5" x2="128.963" y2="-5" transform="matrix(0 -1 -1 0 167.267 147)" stroke="url(#paint2_linear_1493_3309)" stroke-opacity="0.5" stroke-width="10"/>
<line y1="-5" x2="119.945" y2="-5" transform="matrix(0 -1 -1 0 154.4 147)" stroke="url(#paint3_linear_1493_3309)" stroke-opacity="0.5" stroke-width="10"/>
<line y1="-5" x2="110.926" y2="-5" transform="matrix(0 -1 -1 0 141.533 147)" stroke="url(#paint4_linear_1493_3309)" stroke-opacity="0.5" stroke-width="10"/>
<line y1="-5" x2="101.908" y2="-5" transform="matrix(0 -1 -1 0 128.667 147)" stroke="url(#paint5_linear_1493_3309)" stroke-opacity="0.5" stroke-width="10"/>
<line y1="-5" x2="92.8896" y2="-5" transform="matrix(0 -1 -1 0 115.8 147)" stroke="url(#paint6_linear_1493_3309)" stroke-opacity="0.5" stroke-width="10"/>
<line y1="-5" x2="83.8712" y2="-5" transform="matrix(0 -1 -1 0 102.933 147)" stroke="url(#paint7_linear_1493_3309)" stroke-opacity="0.5" stroke-width="10"/>
<line y1="-5" x2="74.8528" y2="-5" transform="matrix(0 -1 -1 0 90.0669 147)" stroke="url(#paint8_linear_1493_3309)" stroke-opacity="0.5" stroke-width="10"/>
<line y1="-5" x2="65.8344" y2="-5" transform="matrix(0 -1 -1 0 77.2002 147)" stroke="url(#paint9_linear_1493_3309)" stroke-opacity="0.5" stroke-width="10"/>
<line y1="-5" x2="56.816" y2="-5" transform="matrix(0 -1 -1 0 64.3335 147)" stroke="url(#paint10_linear_1493_3309)" stroke-opacity="0.5" stroke-width="10"/>
<line y1="-5" x2="47.7976" y2="-5" transform="matrix(0 -1 -1 0 51.4668 147)" stroke="url(#paint11_linear_1493_3309)" stroke-opacity="0.5" stroke-width="10"/>
<line y1="-5" x2="38.7791" y2="-5" transform="matrix(0 -1 -1 0 38.6001 147)" stroke="url(#paint12_linear_1493_3309)" stroke-opacity="0.5" stroke-width="10"/>
<line y1="-5" x2="29.7607" y2="-5" transform="matrix(0 -1 -1 0 25.7334 147)" stroke="url(#paint13_linear_1493_3309)" stroke-opacity="0.5" stroke-width="10"/>
<line y1="-5" x2="20.7423" y2="-5" transform="matrix(0 -1 -1 0 12.8667 147)" stroke="url(#paint14_linear_1493_3309)" stroke-opacity="0.5" stroke-width="10"/>
<line y1="-5" x2="11.7239" y2="-5" transform="matrix(0 -1 -1 0 0 147)" stroke="url(#paint15_linear_1493_3309)" stroke-opacity="0.5" stroke-width="10"/>
<defs>
<linearGradient id="paint0_linear_1493_3309" x1="142.236" y1="-0.992092" x2="-16.8038" y2="-38.5438" gradientUnits="userSpaceOnUse">
<stop stop-color="#FF2C87"/>
<stop offset="1" stop-color="#A92861" stop-opacity="0.6"/>
</linearGradient>
<linearGradient id="paint1_linear_1493_3309" x1="133.51" y1="-0.992092" x2="-16.7164" y2="-34.2867" gradientUnits="userSpaceOnUse">
<stop stop-color="#FF2C87"/>
<stop offset="1" stop-color="#A92861" stop-opacity="0.6"/>
</linearGradient>
<linearGradient id="paint2_linear_1493_3309" x1="124.784" y1="-0.992092" x2="-16.46" y2="-30.2499" gradientUnits="userSpaceOnUse">
<stop stop-color="#FF2C87"/>
<stop offset="1" stop-color="#A92861" stop-opacity="0.6"/>
</linearGradient>
<linearGradient id="paint3_linear_1493_3309" x1="116.058" y1="-0.992092" x2="-16.0426" y2="-26.4423" gradientUnits="userSpaceOnUse">
<stop stop-color="#FF2C87"/>
<stop offset="1" stop-color="#A92861" stop-opacity="0.6"/>
</linearGradient>
<linearGradient id="paint4_linear_1493_3309" x1="107.332" y1="-0.992092" x2="-15.4724" y2="-22.8724" gradientUnits="userSpaceOnUse">
<stop stop-color="#FF2C87"/>
<stop offset="1" stop-color="#A92861" stop-opacity="0.6"/>
</linearGradient>
<linearGradient id="paint5_linear_1493_3309" x1="98.6055" y1="-0.992092" x2="-14.7586" y2="-19.5483" gradientUnits="userSpaceOnUse">
<stop stop-color="#FF2C87"/>
<stop offset="1" stop-color="#A92861" stop-opacity="0.6"/>
</linearGradient>
<linearGradient id="paint6_linear_1493_3309" x1="89.8794" y1="-0.992092" x2="-13.9107" y2="-16.4777" gradientUnits="userSpaceOnUse">
<stop stop-color="#FF2C87"/>
<stop offset="1" stop-color="#A92861" stop-opacity="0.6"/>
</linearGradient>
<linearGradient id="paint7_linear_1493_3309" x1="81.1532" y1="-0.992092" x2="-12.9387" y2="-13.6678" gradientUnits="userSpaceOnUse">
<stop stop-color="#FF2C87"/>
<stop offset="1" stop-color="#A92861" stop-opacity="0.6"/>
</linearGradient>
<linearGradient id="paint8_linear_1493_3309" x1="72.4271" y1="-0.992092" x2="-11.8531" y2="-11.1251" gradientUnits="userSpaceOnUse">
<stop stop-color="#FF2C87"/>
<stop offset="1" stop-color="#A92861" stop-opacity="0.6"/>
</linearGradient>
<linearGradient id="paint9_linear_1493_3309" x1="63.7009" y1="-0.992092" x2="-10.665" y2="-8.85589" gradientUnits="userSpaceOnUse">
<stop stop-color="#FF2C87"/>
<stop offset="1" stop-color="#A92861" stop-opacity="0.6"/>
</linearGradient>
<linearGradient id="paint10_linear_1493_3309" x1="54.9748" y1="-0.992092" x2="-9.38566" y2="-6.86557" gradientUnits="userSpaceOnUse">
<stop stop-color="#FF2C87"/>
<stop offset="1" stop-color="#A92861" stop-opacity="0.6"/>
</linearGradient>
<linearGradient id="paint11_linear_1493_3309" x1="46.2486" y1="-0.992092" x2="-8.02689" y2="-5.15902" gradientUnits="userSpaceOnUse">
<stop stop-color="#FF2C87"/>
<stop offset="1" stop-color="#A92861" stop-opacity="0.6"/>
</linearGradient>
<linearGradient id="paint12_linear_1493_3309" x1="37.5225" y1="-0.992092" x2="-6.60074" y2="-3.74044" gradientUnits="userSpaceOnUse">
<stop stop-color="#FF2C87"/>
<stop offset="1" stop-color="#A92861" stop-opacity="0.6"/>
</linearGradient>
<linearGradient id="paint13_linear_1493_3309" x1="28.7963" y1="-0.992092" x2="-5.11957" y2="-2.61335" gradientUnits="userSpaceOnUse">
<stop stop-color="#FF2C87"/>
<stop offset="1" stop-color="#A92861" stop-opacity="0.6"/>
</linearGradient>
<linearGradient id="paint14_linear_1493_3309" x1="20.0702" y1="-0.992092" x2="-3.59593" y2="-1.78057" gradientUnits="userSpaceOnUse">
<stop stop-color="#FF2C87"/>
<stop offset="1" stop-color="#A92861" stop-opacity="0.6"/>
</linearGradient>
<linearGradient id="paint15_linear_1493_3309" x1="11.344" y1="-0.992092" x2="-2.04258" y2="-1.24418" gradientUnits="userSpaceOnUse">
<stop stop-color="#FF2C87"/>
<stop offset="1" stop-color="#A92861" stop-opacity="0.6"/>
</linearGradient>
</defs>
</svg>
