<svg width="381" height="354" viewBox="0 0 381 354" fill="none" xmlns="http://www.w3.org/2000/svg">
<line y1="-5" x2="354" y2="-5" transform="matrix(0 -1 -1 0 371 354)" stroke="url(#paint0_linear_466_2011)" stroke-width="10"/>
<line y1="-5" x2="332.282" y2="-5" transform="matrix(0 -1 -1 0 346.267 354)" stroke="url(#paint1_linear_466_2011)" stroke-width="10"/>
<line y1="-5" x2="310.564" y2="-5" transform="matrix(0 -1 -1 0 321.533 354)" stroke="url(#paint2_linear_466_2011)" stroke-width="10"/>
<line y1="-5" x2="288.847" y2="-5" transform="matrix(0 -1 -1 0 296.8 354)" stroke="url(#paint3_linear_466_2011)" stroke-width="10"/>
<line y1="-5" x2="267.129" y2="-5" transform="matrix(0 -1 -1 0 272.066 354)" stroke="url(#paint4_linear_466_2011)" stroke-width="10"/>
<line y1="-5" x2="245.411" y2="-5" transform="matrix(0 -1 -1 0 247.333 354)" stroke="url(#paint5_linear_466_2011)" stroke-width="10"/>
<line y1="-5" x2="223.693" y2="-5" transform="matrix(0 -1 -1 0 222.6 354)" stroke="url(#paint6_linear_466_2011)" stroke-width="10"/>
<line y1="-5" x2="201.975" y2="-5" transform="matrix(0 -1 -1 0 197.867 354)" stroke="url(#paint7_linear_466_2011)" stroke-width="10"/>
<line y1="-5" x2="180.258" y2="-5" transform="matrix(0 -1 -1 0 173.133 354)" stroke="url(#paint8_linear_466_2011)" stroke-width="10"/>
<line y1="-5" x2="158.54" y2="-5" transform="matrix(0 -1 -1 0 148.4 354)" stroke="url(#paint9_linear_466_2011)" stroke-width="10"/>
<line y1="-5" x2="136.822" y2="-5" transform="matrix(0 -1 -1 0 123.667 354)" stroke="url(#paint10_linear_466_2011)" stroke-width="10"/>
<line y1="-5" x2="115.104" y2="-5" transform="matrix(0 -1 -1 0 98.9336 354)" stroke="url(#paint11_linear_466_2011)" stroke-width="10"/>
<line y1="-5" x2="93.3865" y2="-5" transform="matrix(0 -1 -1 0 74.2002 354)" stroke="url(#paint12_linear_466_2011)" stroke-width="10"/>
<line y1="-5" x2="71.6687" y2="-5" transform="matrix(0 -1 -1 0 49.4668 354)" stroke="url(#paint13_linear_466_2011)" stroke-width="10"/>
<line y1="-5" x2="49.9509" y2="-5" transform="matrix(0 -1 -1 0 24.7334 354)" stroke="url(#paint14_linear_466_2011)" stroke-width="10"/>
<line y1="-5" x2="28.2331" y2="-5" transform="matrix(0 -1 -1 0 0 354)" stroke="url(#paint15_linear_466_2011)" stroke-width="10"/>
<defs>
<linearGradient id="paint0_linear_466_2011" x1="342.528" y1="-0.992092" x2="36.9711" y2="-174.733" gradientUnits="userSpaceOnUse">
<stop stop-color="#6EFFFF"/>
<stop offset="1" stop-color="#6EFFFF" stop-opacity="0.3"/>
</linearGradient>
<linearGradient id="paint1_linear_466_2011" x1="321.514" y1="-0.992092" x2="26.1193" y2="-158.65" gradientUnits="userSpaceOnUse">
<stop stop-color="#6EFFFF"/>
<stop offset="1" stop-color="#6EFFFF" stop-opacity="0.3"/>
</linearGradient>
<linearGradient id="paint2_linear_466_2011" x1="300.5" y1="-0.992092" x2="16.4492" y2="-142.687" gradientUnits="userSpaceOnUse">
<stop stop-color="#6EFFFF"/>
<stop offset="1" stop-color="#6EFFFF" stop-opacity="0.3"/>
</linearGradient>
<linearGradient id="paint3_linear_466_2011" x1="279.486" y1="-0.992092" x2="7.99761" y2="-126.95" gradientUnits="userSpaceOnUse">
<stop stop-color="#6EFFFF"/>
<stop offset="1" stop-color="#6EFFFF" stop-opacity="0.3"/>
</linearGradient>
<linearGradient id="paint4_linear_466_2011" x1="258.472" y1="-0.992092" x2="0.790874" y2="-111.555" gradientUnits="userSpaceOnUse">
<stop stop-color="#6EFFFF"/>
<stop offset="1" stop-color="#6EFFFF" stop-opacity="0.3"/>
</linearGradient>
<linearGradient id="paint5_linear_466_2011" x1="237.458" y1="-0.992092" x2="-5.15761" y2="-96.6276" gradientUnits="userSpaceOnUse">
<stop stop-color="#6EFFFF"/>
<stop offset="1" stop-color="#6EFFFF" stop-opacity="0.3"/>
</linearGradient>
<linearGradient id="paint6_linear_466_2011" x1="216.444" y1="-0.992092" x2="-9.84924" y2="-82.2997" gradientUnits="userSpaceOnUse">
<stop stop-color="#6EFFFF"/>
<stop offset="1" stop-color="#6EFFFF" stop-opacity="0.3"/>
</linearGradient>
<linearGradient id="paint7_linear_466_2011" x1="195.43" y1="-0.992092" x2="-13.3022" y2="-68.7086" gradientUnits="userSpaceOnUse">
<stop stop-color="#6EFFFF"/>
<stop offset="1" stop-color="#6EFFFF" stop-opacity="0.3"/>
</linearGradient>
<linearGradient id="paint8_linear_466_2011" x1="174.416" y1="-0.992092" x2="-15.553" y2="-55.9947" gradientUnits="userSpaceOnUse">
<stop stop-color="#6EFFFF"/>
<stop offset="1" stop-color="#6EFFFF" stop-opacity="0.3"/>
</linearGradient>
<linearGradient id="paint9_linear_466_2011" x1="153.402" y1="-0.992092" x2="-16.6577" y2="-44.2979" gradientUnits="userSpaceOnUse">
<stop stop-color="#6EFFFF"/>
<stop offset="1" stop-color="#6EFFFF" stop-opacity="0.3"/>
</linearGradient>
<linearGradient id="paint10_linear_466_2011" x1="132.388" y1="-0.992092" x2="-16.6928" y2="-33.7552" gradientUnits="userSpaceOnUse">
<stop stop-color="#6EFFFF"/>
<stop offset="1" stop-color="#6EFFFF" stop-opacity="0.3"/>
</linearGradient>
<linearGradient id="paint11_linear_466_2011" x1="111.374" y1="-0.992092" x2="-15.755" y2="-24.4961" gradientUnits="userSpaceOnUse">
<stop stop-color="#6EFFFF"/>
<stop offset="1" stop-color="#6EFFFF" stop-opacity="0.3"/>
</linearGradient>
<linearGradient id="paint12_linear_466_2011" x1="90.3602" y1="-0.992092" x2="-13.9607" y2="-16.6402" gradientUnits="userSpaceOnUse">
<stop stop-color="#6EFFFF"/>
<stop offset="1" stop-color="#6EFFFF" stop-opacity="0.3"/>
</linearGradient>
<linearGradient id="paint13_linear_466_2011" x1="69.3462" y1="-0.992092" x2="-11.4448" y2="-10.2924" gradientUnits="userSpaceOnUse">
<stop stop-color="#6EFFFF"/>
<stop offset="1" stop-color="#6EFFFF" stop-opacity="0.3"/>
</linearGradient>
<linearGradient id="paint14_linear_466_2011" x1="48.3322" y1="-0.992092" x2="-8.35791" y2="-5.54047" gradientUnits="userSpaceOnUse">
<stop stop-color="#6EFFFF"/>
<stop offset="1" stop-color="#6EFFFF" stop-opacity="0.3"/>
</linearGradient>
<linearGradient id="paint15_linear_466_2011" x1="27.3182" y1="-0.992092" x2="-4.86412" y2="-2.45152" gradientUnits="userSpaceOnUse">
<stop stop-color="#6EFFFF"/>
<stop offset="1" stop-color="#6EFFFF" stop-opacity="0.3"/>
</linearGradient>
</defs>
</svg>
