<svg xmlns="http://www.w3.org/2000/svg" fill="none" viewBox="0 0 35 35">
  <path fill="#fff" d="M25.55 18.31c-.02-2.33 1.04-4.09 3.17-5.38-1.2-1.71-3-2.65-5.38-2.83-2.25-.18-4.71 1.3-5.61 1.3-.96 0-3.14-1.24-4.85-1.24-3.55.05-7.3 2.82-7.3 8.45 0 1.67.3 3.39.9 5.16.82 2.33 3.75 8.04 6.8 7.95 1.6-.04 2.74-1.14 4.82-1.14 2.02 0 3.07 1.14 4.85 1.14 3.09-.05 5.74-5.24 6.51-7.58-4.14-1.95-3.91-5.71-3.91-5.83Zm-3.6-10.42c1.74-2.06 1.58-3.94 1.53-4.6a6.73 6.73 0 0 0-4.31 2.2 6.07 6.07 0 0 0-1.63 4.57c1.66.13 3.17-.72 4.41-2.17Z"/>
</svg>
