<svg xmlns="http://www.w3.org/2000/svg" fill="none" viewBox="0 0 35 35">
    <path fill="#D5D5D5" d="M30.55 12.11a9.52 9.52 0 0 0-.61-3.23 6.72 6.72 0 0 0-3.84-3.84 9.63 9.63 0 0 0-3.2-.61 93.8 93.8 0 0 0-5.4-.08c-3.56 0-4.02 0-5.41.08a9.63 9.63 0 0 0-3.19.61 6.72 6.72 0 0 0-3.84 3.84 9.56 9.56 0 0 0-.6 3.19c-.07 1.4-.09 1.85-.09 5.4 0 3.57 0 4.02.08 5.42.02 1.09.23 2.16.61 3.19A6.72 6.72 0 0 0 8.9 29.9c1.02.4 2.1.63 3.2.66 1.4.06 1.84.08 5.4.08 3.56 0 4.02 0 5.41-.08a9.6 9.6 0 0 0 3.19-.61 6.73 6.73 0 0 0 3.84-3.84 9.6 9.6 0 0 0 .61-3.19c.06-1.4.08-1.85.08-5.41s0-4.01-.08-5.4Zm-13.06 12.1a6.74 6.74 0 1 1 0-13.48 6.74 6.74 0 0 1 0 13.48Zm7.01-12.16a1.57 1.57 0 1 1 0-3.14 1.57 1.57 0 0 1 0 3.14Z"/>
    <path fill="#D5D5D5" d="M17.5 21.85a4.38 4.38 0 1 0 0-8.76 4.38 4.38 0 0 0 0 8.76Z"/>
</svg>
