<?xml version="1.0" encoding="utf-8"?>
<svg version="1.1" id="Layer_1" xmlns="http://www.w3.org/2000/svg" xmlns:xlink="http://www.w3.org/1999/xlink" x="0px" y="0px"
	 viewBox="0 0 24 24" style="enable-background:new 0 0 24 24;" xml:space="preserve">
<g>
	<path d="M12,24C5.4,24,0,18.6,0,12C0,5.4,5.4,0,12,0c6.6,0,12,5.4,12,12C24,18.6,18.6,24,12,24z M12,1.8C6.4,1.8,1.8,6.4,1.8,12
		c0,5.6,4.6,10.2,10.2,10.2c5.6,0,10.2-4.6,10.2-10.2C22.2,6.4,17.6,1.8,12,1.8z"/>
</g>
<path d="M6.5,2.3C5.6,2.3,5,2.9,3.2,4.8C2.9,5.1,2.9,5.7,3.5,5.7c0.6,0,0,1.7,0.3,3.1c0.3,1.5,2.6,2.8,2.3,2.5
	C5.8,11,5.5,9.8,6.4,10.7c0.9,0.9,2.1,2.2,2.9,2.5c0.8,0.3,2.1,0,2.1,0.6c0,0.6,1.5,1.3,2.3,1.6c0.8,0.3-0.3,0.8-0.6,1.5
	c-0.3,0.8,1.4,3,1.8,3.6c0.5,0.6,0.8,0.8,0.2,1.9c-0.5,1,0-0.1,0,0.8c4.9-2.7,4.9-3.1,7.2-6c-0.8-0.5-2.2-0.4-2.3-1
	c-0.2-0.6-0.9-0.6-1.7-1.2c-0.8-0.6-2-0.5-2.9-0.5c-0.9,0-1.7,0.2-2,0c-0.3-0.1-0.4-0.7-0.8-1.3c-0.3-0.6-0.5-0.3-0.9-0.5
	c-0.5-0.2,0.1-0.6,0-0.9s-0.6,0-0.6,0.3c0,0.3-1.5,0-1.5-1.3c0-1.4,1.5-0.9,2.6-1c1.1-0.1,0.8,1.2,1.2,1c0.5-0.1,0.5-0.8,0.3-1.4
	c-0.2-0.6,0.8-1.2,1.2-2.2c0.5-1.1,3,0,2.4-0.6s-0.6-0.9,0.6-1c1.2-0.2-0.8-1.2-1.7-1.6c-0.9-0.5-2.9,0.3-3.8,0.4
	c-0.9,0.1-2.1-0.4-2-1.3c0.1-0.9,4.5-0.2,5.2,0c0.6,0.1,1.1-0.2,0-1c-1.1-0.9-3.5,0-4.6-0.4c-1-0.5-1,0.3-2.7,0.4
	C7.2,2.2,7.5,2.3,6.5,2.3z"/>
</svg>
