<svg xmlns="http://www.w3.org/2000/svg" fill="none" viewBox="0 0 35 35">
    <path fill="#D5D5D5" d="M35 14.35c-3.44 0-6.8-.93-9.6-2.68v12.21c0 2.27-.78 4.47-2.26 6.33a12.6 12.6 0 0 1-5.98 4.08c-2.42.79-5.06.92-7.57.36a13.1 13.1 0 0 1-6.46-3.47A10.5 10.5 0 0 1 .1 25.1a9.95 9.95 0 0 1 1.45-6.51 12.1 12.1 0 0 1 5.44-4.63 14.3 14.3 0 0 1 7.47-1.09v6.15a6.62 6.62 0 0 0-3.6.03c-1.16.34-2.17.99-2.89 1.86a4.68 4.68 0 0 0-1.09 3c.01 1.08.4 2.12 1.13 3a5.86 5.86 0 0 0 2.92 1.83c1.17.33 2.43.33 3.6 0a5.85 5.85 0 0 0 2.9-1.86 4.69 4.69 0 0 0 1.11-3V0h6.88A7.28 7.28 0 0 0 27 4.64 9.08 9.08 0 0 0 29.77 7c1.55.9 3.37 1.38 5.23 1.38v5.97Z"/>
</svg>
