<svg xmlns="http://www.w3.org/2000/svg" fill="none" viewBox="0 0 35 35">
    <path fill="#D5D5D5" d="M17.61 4.37h.2c1.8 0 10.9.07 13.36.74a4.4 4.4 0 0 1 3.1 3.1c.22.83.37 1.93.48 3.07l.02.23.05.56.02.23c.14 2 .16 3.87.16 4.28v.17c0 .42-.02 2.42-.18 4.5l-.02.23-.02.23c-.1 1.25-.27 2.5-.51 3.4a4.39 4.39 0 0 1-3.1 3.12c-2.54.68-12.18.73-13.52.73h-.3c-.68 0-3.48-.02-6.41-.12h-.37l-.2-.02-.37-.01-.37-.02c-2.43-.1-4.74-.28-5.8-.57a4.39 4.39 0 0 1-3.1-3.1c-.24-.91-.4-2.16-.52-3.4l-.01-.24-.02-.23C.08 19.77 0 18.3 0 16.8v-.27c0-.47.02-2.1.14-3.89l.02-.22v-.12l.02-.23.05-.56.02-.23c.1-1.14.26-2.24.48-3.07a4.39 4.39 0 0 1 3.1-3.1 35.9 35.9 0 0 1 5.8-.57l.37-.02.38-.01h.19l.37-.02c2.08-.07 4.17-.1 6.25-.12h.42ZM14 11.4v10.54l9.1-5.26-9.1-5.28Z"/>
</svg>
