<svg width="23" height="20" viewBox="0 0 23 20" fill="none" xmlns="http://www.w3.org/2000/svg">
<path d="M1 6.00072V6.00055C0.999885 5.3375 1.13322 4.68084 1.39248 4.06885C1.65174 3.45685 2.03187 2.90149 2.51115 2.43552C2.99045 1.96952 3.55929 1.60229 4.18466 1.35577C4.81005 1.10924 5.47912 0.988507 6.15266 1.00086L6.16446 1.00108L6.17626 1.00102C6.98856 0.996743 7.79223 1.1635 8.5339 1.48991C9.27554 1.81632 9.9379 2.29475 10.4774 2.89292L11.22 3.71617L11.9626 2.89292C12.5021 2.29475 13.1645 1.81632 13.9061 1.48991C14.6478 1.1635 15.4514 0.996743 16.2637 1.00102L16.2755 1.00108L16.2873 1.00086C16.9609 0.988507 17.6299 1.10924 18.2553 1.35577C18.8807 1.60229 19.4496 1.96952 19.9289 2.43552C20.4081 2.90149 20.7883 3.45685 21.0475 4.06885C21.3068 4.68084 21.4401 5.3375 21.44 6.00055V6.00072C21.44 8.56582 19.8929 10.931 17.6442 13.1938C16.5334 14.3116 15.2905 15.366 14.0547 16.3749C13.705 16.6604 13.3535 16.9441 13.0056 17.2248C12.39 17.7216 11.7858 18.2093 11.2231 18.6815C10.6306 18.1802 9.9923 17.6634 9.34266 17.1374C9.02633 16.8813 8.70731 16.623 8.3896 16.3633C7.15335 15.3526 5.91001 14.2994 4.79831 13.1833C2.54818 10.9244 1 8.56704 1 6.00072Z" fill="#6EFFFF" stroke="#6EFFFF" stroke-width="2"/>
</svg>
