<svg width="32" height="32" viewBox="0 0 32 32" fill="none" xmlns="http://www.w3.org/2000/svg">
<path d="M2.66699 4H10.667C12.0815 4 13.438 4.5619 14.4382 5.5621C15.4384 6.56229 16.0003 7.91885 16.0003 9.33333V28C16.0003 26.9391 15.5789 25.9217 14.8288 25.1716C14.0786 24.4214 13.0612 24 12.0003 24H2.66699V4Z" stroke="white" stroke-width="2" stroke-linecap="round" stroke-linejoin="round"/>
<path d="M29.3333 4H21.3333C19.9188 4 18.5623 4.5619 17.5621 5.5621C16.5619 6.56229 16 7.91885 16 9.33333V28C16 26.9391 16.4214 25.9217 17.1716 25.1716C17.9217 24.4214 18.9391 24 20 24H29.3333V4Z" stroke="white" stroke-width="2" stroke-linecap="round" stroke-linejoin="round"/>
</svg>
