<svg width="40" height="41" viewBox="0 0 40 41" fill="none" xmlns="http://www.w3.org/2000/svg">
<path d="M30.5669 24.951C30.4717 24.835 30.3783 24.7189 30.2866 24.6069C29.0255 23.0625 28.2626 22.1305 28.2626 17.7587C28.2626 15.4953 27.7277 13.6381 26.6736 12.2453C25.8963 11.2163 24.8456 10.4357 23.4607 9.85884C23.4429 9.8488 23.427 9.83564 23.4137 9.81996C22.9156 8.13112 21.5525 7 20.0151 7C18.4778 7 17.1153 8.13112 16.6171 9.81821C16.6038 9.83332 16.5881 9.84607 16.5707 9.85594C13.3389 11.2029 11.7683 13.7873 11.7683 17.7569C11.7683 22.1305 11.0065 23.0625 9.74429 24.6051C9.65257 24.7171 9.55914 24.8309 9.46398 24.9493C9.21819 25.2494 9.06246 25.6145 9.01522 26.0015C8.96799 26.3884 9.03122 26.7809 9.19744 27.1326C9.55111 27.8871 10.3049 28.3554 11.1653 28.3554H28.8713C29.7277 28.3554 30.4763 27.8876 30.8311 27.1367C30.9981 26.7849 31.0619 26.392 31.0151 26.0047C30.9682 25.6173 30.8127 25.2516 30.5669 24.951ZM20.0151 33C20.8435 32.9993 21.6561 32.7717 22.367 32.3412C23.0779 31.9107 23.6604 31.2935 24.0529 30.555C24.0714 30.5196 24.0805 30.4799 24.0794 30.4399C24.0783 30.3999 24.0669 30.3608 24.0465 30.3265C24.0261 30.2923 23.9973 30.2639 23.9628 30.2442C23.9284 30.2246 23.8895 30.2142 23.8499 30.2143H16.1815C16.1419 30.2141 16.1029 30.2244 16.0684 30.244C16.0339 30.2636 16.005 30.292 15.9845 30.3263C15.964 30.3606 15.9526 30.3997 15.9515 30.4398C15.9504 30.4798 15.9595 30.5195 15.978 30.555C16.3704 31.2934 16.9528 31.9106 17.6636 32.3411C18.3744 32.7715 19.1869 32.9992 20.0151 33Z" fill="white" fill-opacity="0.8"/>
</svg>
