<svg width="32" height="32" viewBox="0 0 32 32" fill="none" xmlns="http://www.w3.org/2000/svg">
<path d="M26.6663 21.6613C26.6663 21.2674 26.5887 20.8773 26.438 20.5134C26.2872 20.1495 26.0662 19.8189 25.7876 19.5404C25.509 19.262 25.1783 19.0411 24.8143 18.8905C24.4503 18.7399 24.0602 18.6624 23.6663 18.6626H8.33301C7.93899 18.6624 7.54881 18.7399 7.18475 18.8906C6.82069 19.0413 6.48991 19.2623 6.2113 19.5409C5.93269 19.8195 5.71171 20.1503 5.56101 20.5144C5.41031 20.8784 5.33283 21.2686 5.33301 21.6626V22.432C5.33301 23.6226 5.75834 24.7733 6.53034 25.6786C8.61967 28.124 11.801 29.332 15.9943 29.332C20.189 29.332 23.3717 28.1253 25.4637 25.68C26.2396 24.7741 26.6662 23.6207 26.6663 22.428V21.6613V21.6613ZM8.33167 20.6626H23.6663C24.217 20.6626 24.6637 21.1093 24.6637 21.6626V22.4293C24.6639 23.1446 24.4085 23.8364 23.9437 24.38C22.2677 26.3373 19.645 27.3306 15.993 27.3306C12.3423 27.3306 9.72101 26.3373 8.05034 24.38C7.58655 23.8369 7.33172 23.1461 7.33167 22.432V21.6613C7.33203 21.3965 7.43736 21.1427 7.62457 20.9555C7.81178 20.7683 8.06559 20.663 8.33034 20.6626H8.33167ZM22.6623 9.33596C22.6625 7.9319 22.2194 6.56363 21.3961 5.42624C20.5729 4.28885 19.4116 3.44042 18.0777 3.00192C16.7439 2.56342 15.3057 2.55724 13.9681 2.98426C12.6306 3.41127 11.462 4.24969 10.629 5.37996C10.5324 5.34936 10.4317 5.33362 10.3303 5.33329H6.99967C6.73446 5.33329 6.4801 5.43865 6.29257 5.62618C6.10503 5.81372 5.99967 6.06807 5.99967 6.33329V13.664C5.99932 14.1457 6.09391 14.6228 6.27802 15.0679C6.46213 15.5131 6.73216 15.9176 7.07267 16.2584C7.41319 16.5992 7.81752 16.8695 8.26255 17.0539C8.70759 17.2384 9.1846 17.3333 9.66634 17.3333H9.99967V17.328H10.013C10.2389 17.3283 10.4612 17.2711 10.6589 17.1618C10.8566 17.0526 11.0232 16.8947 11.143 16.7032C11.2629 16.5118 11.332 16.2929 11.3439 16.0673C11.3558 15.8417 11.31 15.6168 11.211 15.4138C11.1119 15.2108 10.9628 15.0363 10.7777 14.9069C10.5926 14.7774 10.3776 14.6972 10.1529 14.6738C9.92819 14.6504 9.70125 14.6846 9.49343 14.7731C9.28561 14.8617 9.10376 15.0017 8.96501 15.18C8.67627 15.046 8.43192 14.8322 8.26085 14.5638C8.08978 14.2954 7.99915 13.9836 7.99967 13.6653V13.3333H8.99701C9.50367 13.3333 9.97434 13.1706 10.357 12.896C11.1282 14.1186 12.2759 15.0574 13.6271 15.571C14.9783 16.0846 16.4598 16.1451 17.8484 15.7433C19.237 15.3416 20.4574 14.4995 21.3257 13.3438C22.1939 12.1881 22.6631 10.7815 22.6623 9.33596V9.33596ZM9.32901 9.19462C9.32705 9.28884 9.32705 9.38308 9.32901 9.47729V10.9986C9.32901 11.087 9.29389 11.1718 9.23138 11.2343C9.16886 11.2968 9.08408 11.332 8.99567 11.332H7.99967V7.33462H9.33034V9.19462H9.32901ZM11.329 9.45462V9.21729C11.3602 7.99029 11.8736 6.82498 12.7579 5.97379C13.6422 5.1226 14.8262 4.65406 16.0535 4.66967C17.2808 4.68528 18.4525 5.18377 19.3149 6.05717C20.1773 6.93057 20.6608 8.10856 20.6608 9.33596C20.6608 10.5634 20.1773 11.7413 19.3149 12.6147C18.4525 13.4881 17.2808 13.9866 16.0535 14.0022C14.8262 14.0179 13.6422 13.5493 12.7579 12.6981C11.8736 11.8469 11.3602 10.6816 11.329 9.45462V9.45462Z" fill="white"/>
</svg>
