<svg width="20" height="20" viewBox="0 0 20 20" fill="none" xmlns="http://www.w3.org/2000/svg">
<path d="M7.5 2.49992V0.833252H12.5V2.49992H7.5ZM9.16667 11.6666H10.8333V6.66658H9.16667V11.6666ZM10 18.3333C8.97222 18.3333 8.00333 18.1355 7.09333 17.7399C6.18389 17.3438 5.38889 16.8055 4.70833 16.1249C4.02778 15.4444 3.48944 14.6494 3.09333 13.7399C2.69778 12.8299 2.5 11.861 2.5 10.8333C2.5 9.80547 2.69778 8.83659 3.09333 7.92659C3.48944 7.01714 4.02778 6.22214 4.70833 5.54159C5.38889 4.86103 6.18389 4.32297 7.09333 3.92742C8.00333 3.53131 8.97222 3.33325 10 3.33325C10.8611 3.33325 11.6875 3.47214 12.4792 3.74992C13.2708 4.0277 14.0139 4.43047 14.7083 4.95825L15.875 3.79159L17.0417 4.95825L15.875 6.12492C16.4028 6.81936 16.8056 7.56242 17.0833 8.35408C17.3611 9.14575 17.5 9.97214 17.5 10.8333C17.5 11.861 17.3022 12.8299 16.9067 13.7399C16.5106 14.6494 15.9722 15.4444 15.2917 16.1249C14.6111 16.8055 13.8161 17.3438 12.9067 17.7399C11.9967 18.1355 11.0278 18.3333 10 18.3333ZM10 16.6666C11.6111 16.6666 12.9861 16.0971 14.125 14.9583C15.2639 13.8194 15.8333 12.4444 15.8333 10.8333C15.8333 9.22214 15.2639 7.84714 14.125 6.70825C12.9861 5.56936 11.6111 4.99992 10 4.99992C8.38889 4.99992 7.01389 5.56936 5.875 6.70825C4.73611 7.84714 4.16667 9.22214 4.16667 10.8333C4.16667 12.4444 4.73611 13.8194 5.875 14.9583C7.01389 16.0971 8.38889 16.6666 10 16.6666Z" fill="white"/>
</svg>
