<svg width="308" height="58" viewBox="0 0 308 58" fill="none" xmlns="http://www.w3.org/2000/svg">
<path d="M38.3685 31.0277C38.3685 33.9106 37.2935 36.5003 35.4856 38.4548C34.5083 39.5298 33.2867 40.4093 31.9674 40.9957C31.2345 41.3377 30.4527 41.582 29.6709 41.7286C28.8402 41.8752 28.0096 41.8263 27.1789 41.8263C26.2505 41.8263 25.2733 41.8263 24.3449 41.8263C24.296 40.8491 24.3449 39.8718 24.3449 38.8946C24.3449 38.7969 24.3449 36.9401 24.3449 36.9401C25.6642 36.9401 27.0323 36.9401 28.3516 36.9401C28.8891 36.9401 29.3777 36.9889 29.8664 36.6958C30.355 36.4026 30.7947 36.1094 31.2345 35.7674C32.0163 35.1322 32.6515 34.3504 33.0424 33.422C33.3356 32.7379 33.4333 32.005 33.4333 31.2232C33.4333 27.9005 30.7947 25.2619 27.5698 25.2619C24.3449 25.2619 21.7063 27.9494 21.7063 31.2232C21.7063 32.3959 21.7063 33.5686 21.7063 34.6924C21.7063 37.0867 21.7063 39.4809 21.7063 41.9241C21.7063 43.6343 21.7063 45.3445 21.7063 47.0058C21.7063 49.5466 21.2177 51.8432 19.6052 53.8466C18.1882 55.7033 16.1848 57.0226 13.8883 57.6578C13.0576 57.9021 12.1292 57.9999 11.2497 57.9999C5.38619 57.9999 0.597656 53.2113 0.597656 47.2501C0.597656 46.2728 0.744238 45.2956 0.988551 44.3672C1.62377 41.9729 3.13851 39.823 5.19074 38.4548C6.55889 37.5264 8.17136 36.989 9.78382 36.8912C10.2724 36.8424 10.7122 36.8424 11.2008 36.8424C12.3247 36.8424 14.4258 36.9401 14.4258 36.9401V41.8263C13.1065 41.8263 11.8361 41.8263 10.5168 41.8263C8.12249 41.8263 6.07026 44.0252 5.53278 46.224C5.38619 46.7126 5.33733 47.2501 5.33733 47.7387C5.33733 50.7193 7.68273 52.6739 10.6145 53.3579C13.3019 53.9931 16.9178 51.3546 16.9666 48.0808C16.9666 47.3478 16.9666 46.566 16.9666 45.8331C16.9666 43.5854 16.9666 41.3377 16.9666 39.0412C16.9666 36.8424 16.9666 34.5947 16.9666 32.3959C16.9666 31.4675 16.9666 30.4902 16.9666 29.5618C17.1132 28.5846 17.3575 27.6562 17.7484 26.7767C19.4098 22.8676 23.221 20.1313 27.6675 20.1313C33.5311 20.1313 38.3685 25.0176 38.3685 31.0277Z" fill="#6EFFFF"/>
<path d="M58.4022 32.2982C58.4022 37.1845 57.3273 42.0707 55.2262 46.4684C54.3955 48.2274 53.4183 49.8887 52.2944 51.4523C51.7081 52.2341 51.1217 52.9671 50.4865 53.7C49.949 54.3352 49.3138 55.2636 48.5808 55.6545C47.115 56.4852 45.1605 55.0193 45.1605 53.4557C45.1605 52.1853 46.5286 51.1103 47.3104 50.2308C51.4638 45.3934 53.7603 38.9924 53.9069 32.8357C54.2489 17.4928 41.5935 5.08171 26.2506 5.08171C23.0257 5.08171 19.8008 5.57034 16.7224 6.64532C13.7907 7.72029 11.1032 9.33276 8.75782 11.3361C8.31806 11.727 7.87829 12.1179 7.43853 12.46C6.60787 13.144 5.87492 13.7793 4.70222 13.4861C3.72497 13.2418 2.8943 12.3134 2.84544 11.2873C2.79658 10.5543 3.18748 10.0657 3.6761 9.57707C4.31132 8.94186 4.94653 8.30665 5.63061 7.7203C7.43853 6.05897 9.39304 4.59309 11.5919 3.42038C14.5725 1.85678 17.7974 0.879529 21.1201 0.390902C22.9768 0.146589 24.8336 0 26.6904 0C44.2809 0.0977252 58.4022 14.3656 58.4022 32.2982Z" fill="#6EFFFF"/>
<path d="M48.5322 32.3958C48.5322 38.3082 46.2845 43.6831 42.6198 47.7387C42.4244 47.983 42.2289 48.1785 42.0335 48.3739C41.5937 48.6671 41.1051 48.8626 40.5676 48.8626C39.1994 48.8626 38.0756 47.7387 38.0756 46.3706C38.0756 45.9797 38.1733 45.5888 38.3199 45.2467C38.6619 44.9047 39.004 44.5626 39.346 44.1717C42.0823 41.0445 43.6948 36.9401 43.6948 32.4447C43.6948 22.6722 35.9257 14.7564 26.2997 14.7564C21.7066 14.7564 17.5044 16.5644 14.4261 19.545C14.2306 19.7404 14.0352 19.9359 13.8397 20.1313C13.4488 20.4245 12.9114 20.62 12.3739 20.62C11.0057 20.62 9.83301 19.4961 9.83301 18.128C9.83301 17.5905 9.97959 17.1507 10.2728 16.711C10.4682 16.4666 10.7125 16.2712 10.908 16.0757C14.9147 12.1667 20.3385 9.77246 26.2997 9.77246C38.5642 9.77246 48.5322 19.887 48.5322 32.3958Z" fill="#6EFFFF"/>
<path d="M93.5983 42.36C91.6303 42.36 89.7463 42.084 87.9463 41.532C86.1463 40.956 84.7183 40.224 83.6623 39.336L85.2823 35.7C86.2903 36.492 87.5383 37.152 89.0263 37.68C90.5143 38.208 92.0383 38.472 93.5983 38.472C94.9183 38.472 95.9863 38.328 96.8023 38.04C97.6183 37.752 98.2183 37.368 98.6023 36.888C98.9863 36.384 99.1783 35.82 99.1783 35.196C99.1783 34.428 98.9023 33.816 98.3503 33.36C97.7983 32.88 97.0783 32.508 96.1903 32.244C95.3263 31.956 94.3543 31.692 93.2743 31.452C92.2183 31.212 91.1503 30.936 90.0703 30.624C89.0143 30.288 88.0423 29.868 87.1543 29.364C86.2903 28.836 85.5823 28.14 85.0303 27.276C84.4783 26.412 84.2023 25.308 84.2023 23.964C84.2023 22.596 84.5623 21.348 85.2823 20.22C86.0263 19.068 87.1423 18.156 88.6303 17.484C90.1423 16.788 92.0503 16.44 94.3543 16.44C95.8663 16.44 97.3663 16.632 98.8543 17.016C100.342 17.4 101.638 17.952 102.742 18.672L101.266 22.308C100.138 21.636 98.9743 21.144 97.7743 20.832C96.5743 20.496 95.4223 20.328 94.3183 20.328C93.0223 20.328 91.9663 20.484 91.1503 20.796C90.3583 21.108 89.7703 21.516 89.3863 22.02C89.0263 22.524 88.8463 23.1 88.8463 23.748C88.8463 24.516 89.1103 25.14 89.6383 25.62C90.1903 26.076 90.8983 26.436 91.7623 26.7C92.6503 26.964 93.6343 27.228 94.7143 27.492C95.7943 27.732 96.8623 28.008 97.9183 28.32C98.9983 28.632 99.9703 29.04 100.834 29.544C101.722 30.048 102.43 30.732 102.958 31.596C103.51 32.46 103.786 33.552 103.786 34.872C103.786 36.216 103.414 37.464 102.67 38.616C101.95 39.744 100.834 40.656 99.3223 41.352C97.8103 42.024 95.9023 42.36 93.5983 42.36ZM116.635 42.252C114.667 42.252 112.915 41.832 111.379 40.992C109.843 40.128 108.631 38.952 107.743 37.464C106.855 35.976 106.411 34.284 106.411 32.388C106.411 30.468 106.855 28.776 107.743 27.312C108.631 25.824 109.843 24.66 111.379 23.82C112.915 22.98 114.667 22.56 116.635 22.56C118.627 22.56 120.391 22.98 121.927 23.82C123.487 24.66 124.699 25.812 125.563 27.276C126.451 28.74 126.895 30.444 126.895 32.388C126.895 34.284 126.451 35.976 125.563 37.464C124.699 38.952 123.487 40.128 121.927 40.992C120.391 41.832 118.627 42.252 116.635 42.252ZM116.635 38.4C117.739 38.4 118.723 38.16 119.587 37.68C120.451 37.2 121.123 36.504 121.603 35.592C122.107 34.68 122.359 33.612 122.359 32.388C122.359 31.14 122.107 30.072 121.603 29.184C121.123 28.272 120.451 27.576 119.587 27.096C118.723 26.616 117.751 26.376 116.671 26.376C115.567 26.376 114.583 26.616 113.719 27.096C112.879 27.576 112.207 28.272 111.703 29.184C111.199 30.072 110.947 31.14 110.947 32.388C110.947 33.612 111.199 34.68 111.703 35.592C112.207 36.504 112.879 37.2 113.719 37.68C114.583 38.16 115.555 38.4 116.635 38.4ZM139.334 42.252C137.702 42.252 136.262 41.952 135.014 41.352C133.766 40.728 132.794 39.792 132.098 38.544C131.402 37.272 131.054 35.676 131.054 33.756V22.776H135.554V33.144C135.554 34.872 135.938 36.168 136.706 37.032C137.498 37.872 138.614 38.292 140.054 38.292C141.11 38.292 142.022 38.076 142.79 37.644C143.582 37.212 144.194 36.564 144.626 35.7C145.082 34.836 145.31 33.768 145.31 32.496V22.776H149.81V42H145.526V36.816L146.282 38.4C145.634 39.648 144.686 40.608 143.438 41.28C142.19 41.928 140.822 42.252 139.334 42.252ZM166.61 22.56C168.146 22.56 169.514 22.86 170.714 23.46C171.938 24.06 172.898 24.984 173.594 26.232C174.29 27.456 174.638 29.04 174.638 30.984V42H170.138V31.56C170.138 29.856 169.73 28.584 168.914 27.744C168.122 26.904 167.006 26.484 165.566 26.484C164.51 26.484 163.574 26.7 162.758 27.132C161.942 27.564 161.306 28.212 160.85 29.076C160.418 29.916 160.202 30.984 160.202 32.28V42H155.702V22.776H159.986V27.96L159.23 26.376C159.902 25.152 160.874 24.216 162.146 23.568C163.442 22.896 164.93 22.56 166.61 22.56ZM188.518 42.252C186.67 42.252 185.002 41.844 183.514 41.028C182.05 40.188 180.898 39.036 180.058 37.572C179.218 36.108 178.798 34.38 178.798 32.388C178.798 30.396 179.218 28.668 180.058 27.204C180.898 25.74 182.05 24.6 183.514 23.784C185.002 22.968 186.67 22.56 188.518 22.56C190.126 22.56 191.566 22.92 192.838 23.64C194.11 24.336 195.118 25.404 195.862 26.844C196.606 28.284 196.978 30.132 196.978 32.388C196.978 34.62 196.618 36.468 195.898 37.932C195.178 39.372 194.182 40.452 192.91 41.172C191.638 41.892 190.174 42.252 188.518 42.252ZM189.058 38.4C190.138 38.4 191.098 38.16 191.938 37.68C192.802 37.2 193.486 36.504 193.99 35.592C194.518 34.68 194.782 33.612 194.782 32.388C194.782 31.14 194.518 30.072 193.99 29.184C193.486 28.272 192.802 27.576 191.938 27.096C191.098 26.616 190.138 26.376 189.058 26.376C187.978 26.376 187.006 26.616 186.142 27.096C185.302 27.576 184.618 28.272 184.09 29.184C183.586 30.072 183.334 31.14 183.334 32.388C183.334 33.612 183.586 34.68 184.09 35.592C184.618 36.504 185.302 37.2 186.142 37.68C187.006 38.16 187.978 38.4 189.058 38.4ZM194.89 42V37.464L195.07 32.352L194.71 27.24V15.288H199.174V42H194.89ZM211.469 42L203.117 16.8H207.977L215.429 39.588H213.017L220.757 16.8H225.077L232.601 39.588H230.261L237.893 16.8H242.357L234.005 42H229.037L222.161 21.444H223.457L216.473 42H211.469ZM256.14 42V38.112L255.888 37.284V30.48C255.888 29.16 255.492 28.14 254.7 27.42C253.908 26.676 252.708 26.304 251.1 26.304C250.02 26.304 248.952 26.472 247.896 26.808C246.864 27.144 245.988 27.612 245.268 28.212L243.504 24.936C244.536 24.144 245.76 23.556 247.176 23.172C248.616 22.764 250.104 22.56 251.64 22.56C254.424 22.56 256.572 23.232 258.084 24.576C259.62 25.896 260.388 27.948 260.388 30.732V42H256.14ZM250.092 42.252C248.652 42.252 247.392 42.012 246.312 41.532C245.232 41.028 244.392 40.344 243.792 39.48C243.216 38.592 242.928 37.596 242.928 36.492C242.928 35.412 243.18 34.44 243.684 33.576C244.212 32.712 245.064 32.028 246.24 31.524C247.416 31.02 248.976 30.768 250.92 30.768H256.5V33.756H251.244C249.708 33.756 248.676 34.008 248.148 34.512C247.62 34.992 247.356 35.592 247.356 36.312C247.356 37.128 247.68 37.776 248.328 38.256C248.976 38.736 249.876 38.976 251.028 38.976C252.132 38.976 253.116 38.724 253.98 38.22C254.868 37.716 255.504 36.972 255.888 35.988L256.644 38.688C256.212 39.816 255.432 40.692 254.304 41.316C253.2 41.94 251.796 42.252 250.092 42.252ZM270.923 42L262.679 22.776H267.359L274.451 39.732H272.147L279.491 22.776H283.811L275.567 42H270.923ZM295.133 42.252C292.997 42.252 291.125 41.832 289.517 40.992C287.933 40.128 286.697 38.952 285.809 37.464C284.945 35.976 284.513 34.284 284.513 32.388C284.513 30.468 284.933 28.776 285.773 27.312C286.637 25.824 287.813 24.66 289.301 23.82C290.813 22.98 292.529 22.56 294.449 22.56C296.321 22.56 297.989 22.968 299.453 23.784C300.917 24.6 302.069 25.752 302.909 27.24C303.749 28.728 304.169 30.48 304.169 32.496C304.169 32.688 304.157 32.904 304.133 33.144C304.133 33.384 304.121 33.612 304.097 33.828H288.077V30.84H301.721L299.957 31.776C299.981 30.672 299.753 29.7 299.273 28.86C298.793 28.02 298.133 27.36 297.293 26.88C296.477 26.4 295.529 26.16 294.449 26.16C293.345 26.16 292.373 26.4 291.533 26.88C290.717 27.36 290.069 28.032 289.589 28.896C289.133 29.736 288.905 30.732 288.905 31.884V32.604C288.905 33.756 289.169 34.776 289.697 35.664C290.225 36.552 290.969 37.236 291.929 37.716C292.889 38.196 293.993 38.436 295.241 38.436C296.321 38.436 297.293 38.268 298.157 37.932C299.021 37.596 299.789 37.068 300.461 36.348L302.873 39.12C302.009 40.128 300.917 40.908 299.597 41.46C298.301 41.988 296.813 42.252 295.133 42.252Z" fill="#6EFFFF"/>
</svg>
