<svg width="153" height="129" viewBox="0 0 153 129" fill="none" xmlns="http://www.w3.org/2000/svg">
<g filter="url(#filter0_d_1372_3286)">
<path d="M89.5409 45.6253C89.5409 49.8645 87.9601 53.6726 85.3017 56.5467C83.8646 58.1274 82.0684 59.4207 80.1284 60.2829C79.0506 60.7859 77.901 61.1452 76.7514 61.3607C75.5299 61.5763 74.3084 61.5044 73.087 61.5044C71.7218 61.5044 70.2848 61.5044 68.9196 61.5044C68.8478 60.0674 68.9196 58.6304 68.9196 57.1933C68.9196 57.0496 68.9196 54.3193 68.9196 54.3193C70.8596 54.3193 72.8714 54.3193 74.8114 54.3193C75.6018 54.3193 76.3203 54.3912 77.0388 53.96C77.7573 53.5289 78.4039 53.0978 79.0506 52.5949C80.2002 51.6608 81.1343 50.5112 81.7091 49.146C82.1402 48.1401 82.2839 47.0623 82.2839 45.9127C82.2839 41.0269 78.4039 37.1469 73.6618 37.1469C68.9196 37.1469 65.0397 41.0987 65.0397 45.9127C65.0397 47.6372 65.0397 49.3616 65.0397 51.0142C65.0397 54.5349 65.0397 58.0556 65.0397 61.6481C65.0397 64.1629 65.0397 66.6777 65.0397 69.1206C65.0397 72.8569 64.3211 76.2339 61.9501 79.1798C59.8664 81.9101 56.9205 83.8501 53.5435 84.7842C52.322 85.1434 50.9568 85.2871 49.6635 85.2871C41.0414 85.2871 34 78.2457 34 69.4799C34 68.0429 34.2155 66.6058 34.5748 65.2407C35.5089 61.72 37.7363 58.5585 40.754 56.5467C42.7658 55.1815 45.1369 54.3912 47.508 54.2475C48.2265 54.1756 48.8732 54.1756 49.5917 54.1756C51.2443 54.1756 54.3338 54.3193 54.3338 54.3193V61.5044C52.3939 61.5044 50.5257 61.5044 48.5858 61.5044C45.0651 61.5044 42.0473 64.7377 41.257 67.971C41.0414 68.6895 40.9696 69.4799 40.9696 70.1984C40.9696 74.5813 44.4184 77.4554 48.7295 78.4613C52.6813 79.3953 57.9983 75.5154 58.0701 70.7014C58.0701 69.6236 58.0701 68.474 58.0701 67.3962C58.0701 64.091 58.0701 60.7859 58.0701 57.4089C58.0701 54.1756 58.0701 50.8705 58.0701 47.6372C58.0701 46.272 58.0701 44.835 58.0701 43.4698C58.2857 42.0328 58.6449 40.6676 59.2197 39.3743C61.6627 33.6262 67.267 29.6025 73.8055 29.6025C82.4276 29.6025 89.5409 36.7876 89.5409 45.6253Z" fill="white"/>
<path d="M119 47.4936C119 54.6787 117.419 61.8638 114.33 68.3304C113.108 70.917 111.671 73.3599 110.019 75.6592C109.156 76.8088 108.294 77.8866 107.36 78.9643C106.57 79.8984 105.636 81.2636 104.558 81.8384C102.402 83.0598 99.5284 80.9043 99.5284 78.6051C99.5284 76.7369 101.54 75.1562 102.69 73.8629C108.797 66.7496 112.174 57.3372 112.39 48.2839C112.893 25.7227 94.2833 7.47251 71.7221 7.47251C66.9799 7.47251 62.2377 8.19102 57.7111 9.77174C53.4 11.3525 49.4482 13.7236 45.9994 16.6695C45.3527 17.2443 44.7061 17.8191 44.0594 18.322C42.8379 19.3279 41.7602 20.262 40.0357 19.8309C38.5987 19.4716 37.3772 18.1065 37.3054 16.5976C37.2335 15.5198 37.8083 14.8013 38.5269 14.0828C39.4609 13.1487 40.395 12.2147 41.4009 11.3525C44.0594 8.90954 46.9334 6.754 50.1667 5.02958C54.5497 2.73034 59.2918 1.29332 64.1777 0.574811C66.908 0.215555 69.6384 0 72.3687 0C98.2351 0.143702 119 21.1242 119 47.4936Z" fill="white"/>
<path d="M104.486 47.6372C104.486 56.3311 101.181 64.2348 95.7924 70.1984C95.505 70.5577 95.2176 70.8451 94.9302 71.1325C94.2835 71.5636 93.565 71.851 92.7746 71.851C90.7628 71.851 89.1102 70.1984 89.1102 68.1866C89.1102 67.6118 89.2539 67.0369 89.4695 66.534C89.9724 66.031 90.4754 65.5281 90.9784 64.9533C95.002 60.3548 97.3731 54.3193 97.3731 47.709C97.3731 33.3388 85.9488 21.6989 71.7941 21.6989C65.0401 21.6989 58.8609 24.3574 54.3343 28.7403C54.0469 29.0277 53.7595 29.3151 53.4721 29.6025C52.8973 30.0337 52.1069 30.3211 51.3166 30.3211C49.3047 30.3211 47.5803 28.6685 47.5803 26.6566C47.5803 25.8663 47.7959 25.2196 48.227 24.573C48.5144 24.2137 48.8736 23.9263 49.161 23.6389C55.0528 17.8908 63.0283 14.3701 71.7941 14.3701C89.8288 14.3701 104.486 29.2433 104.486 47.6372Z" fill="white"/>
<path d="M11.368 114.431C10.12 114.431 8.92 114.231 7.768 113.831C6.632 113.415 5.752 112.887 5.128 112.247L5.824 110.879C6.416 111.455 7.208 111.943 8.2 112.343C9.208 112.727 10.264 112.919 11.368 112.919C12.424 112.919 13.28 112.791 13.936 112.535C14.608 112.263 15.096 111.903 15.4 111.455C15.72 111.007 15.88 110.511 15.88 109.967C15.88 109.311 15.688 108.783 15.304 108.383C14.936 107.983 14.448 107.671 13.84 107.447C13.232 107.207 12.56 106.999 11.824 106.823C11.088 106.647 10.352 106.463 9.616 106.271C8.88 106.063 8.2 105.791 7.576 105.455C6.968 105.119 6.472 104.679 6.088 104.135C5.72 103.575 5.536 102.847 5.536 101.951C5.536 101.119 5.752 100.359 6.184 99.6711C6.632 98.9671 7.312 98.4071 8.224 97.9911C9.136 97.5591 10.304 97.3431 11.728 97.3431C12.672 97.3431 13.608 97.4791 14.536 97.7511C15.464 98.0071 16.264 98.3671 16.936 98.8311L16.336 100.247C15.616 99.7671 14.848 99.4151 14.032 99.1911C13.232 98.9671 12.456 98.8551 11.704 98.8551C10.696 98.8551 9.864 98.9911 9.208 99.2631C8.552 99.5351 8.064 99.9031 7.744 100.367C7.44 100.815 7.288 101.327 7.288 101.903C7.288 102.559 7.472 103.087 7.84 103.487C8.224 103.887 8.72 104.199 9.328 104.423C9.952 104.647 10.632 104.847 11.368 105.023C12.104 105.199 12.832 105.391 13.552 105.599C14.288 105.807 14.96 106.079 15.568 106.415C16.192 106.735 16.688 107.167 17.056 107.711C17.44 108.255 17.632 108.967 17.632 109.847C17.632 110.663 17.408 111.423 16.96 112.127C16.512 112.815 15.824 113.375 14.896 113.807C13.984 114.223 12.808 114.431 11.368 114.431ZM26.2776 114.407C25.0616 114.407 23.9656 114.135 22.9896 113.591C22.0296 113.031 21.2696 112.271 20.7096 111.311C20.1496 110.335 19.8696 109.223 19.8696 107.975C19.8696 106.711 20.1496 105.599 20.7096 104.639C21.2696 103.679 22.0296 102.927 22.9896 102.383C23.9496 101.839 25.0456 101.567 26.2776 101.567C27.5256 101.567 28.6296 101.839 29.5896 102.383C30.5656 102.927 31.3256 103.679 31.8696 104.639C32.4296 105.599 32.7096 106.711 32.7096 107.975C32.7096 109.223 32.4296 110.335 31.8696 111.311C31.3256 112.271 30.5656 113.031 29.5896 113.591C28.6136 114.135 27.5096 114.407 26.2776 114.407ZM26.2776 112.895C27.1896 112.895 27.9976 112.695 28.7016 112.295C29.4056 111.879 29.9576 111.303 30.3576 110.567C30.7736 109.815 30.9816 108.951 30.9816 107.975C30.9816 106.983 30.7736 106.119 30.3576 105.383C29.9576 104.647 29.4056 104.079 28.7016 103.679C27.9976 103.263 27.1976 103.055 26.3016 103.055C25.4056 103.055 24.6056 103.263 23.9016 103.679C23.1976 104.079 22.6376 104.647 22.2216 105.383C21.8056 106.119 21.5976 106.983 21.5976 107.975C21.5976 108.951 21.8056 109.815 22.2216 110.567C22.6376 111.303 23.1976 111.879 23.9016 112.295C24.6056 112.695 25.3976 112.895 26.2776 112.895ZM41.3965 114.407C40.3245 114.407 39.3885 114.207 38.5885 113.807C37.7885 113.407 37.1645 112.807 36.7165 112.007C36.2845 111.207 36.0685 110.207 36.0685 109.007V101.687H37.7725V108.815C37.7725 110.159 38.1005 111.175 38.7565 111.863C39.4285 112.535 40.3645 112.871 41.5645 112.871C42.4445 112.871 43.2045 112.695 43.8445 112.343C44.5005 111.975 44.9965 111.447 45.3325 110.759C45.6845 110.071 45.8605 109.247 45.8605 108.287V101.687H47.5645V114.287H45.9325V110.831L46.1965 111.455C45.7965 112.383 45.1725 113.111 44.3245 113.639C43.4925 114.151 42.5165 114.407 41.3965 114.407ZM58.7455 101.567C59.7695 101.567 60.6655 101.767 61.4335 102.167C62.2175 102.551 62.8255 103.143 63.2575 103.943C63.7055 104.743 63.9295 105.751 63.9295 106.967V114.287H62.2255V107.135C62.2255 105.807 61.8895 104.807 61.2175 104.135C60.5615 103.447 59.6335 103.103 58.4335 103.103C57.5375 103.103 56.7535 103.287 56.0815 103.655C55.4255 104.007 54.9135 104.527 54.5455 105.215C54.1935 105.887 54.0175 106.703 54.0175 107.663V114.287H52.3135V101.687H53.9455V105.143L53.6815 104.495C54.0815 103.583 54.7215 102.871 55.6015 102.359C56.4815 101.831 57.5295 101.567 58.7455 101.567ZM73.5483 114.407C72.3483 114.407 71.2683 114.135 70.3083 113.591C69.3643 113.047 68.6203 112.295 68.0763 111.335C67.5323 110.359 67.2603 109.239 67.2603 107.975C67.2603 106.695 67.5323 105.575 68.0763 104.615C68.6203 103.655 69.3643 102.911 70.3083 102.383C71.2683 101.839 72.3483 101.567 73.5483 101.567C74.6523 101.567 75.6363 101.815 76.5003 102.311C77.3803 102.807 78.0763 103.535 78.5883 104.495C79.1163 105.439 79.3802 106.599 79.3802 107.975C79.3802 109.335 79.1243 110.495 78.6123 111.455C78.1003 112.415 77.4043 113.151 76.5243 113.663C75.6603 114.159 74.6683 114.407 73.5483 114.407ZM73.6683 112.895C74.5643 112.895 75.3643 112.695 76.0683 112.295C76.7883 111.879 77.3483 111.303 77.7483 110.567C78.1643 109.815 78.3723 108.951 78.3723 107.975C78.3723 106.983 78.1643 106.119 77.7483 105.383C77.3483 104.647 76.7883 104.079 76.0683 103.679C75.3643 103.263 74.5643 103.055 73.6683 103.055C72.7883 103.055 71.9963 103.263 71.2923 103.679C70.5883 104.079 70.0283 104.647 69.6123 105.383C69.1963 106.119 68.9883 106.983 68.9883 107.975C68.9883 108.951 69.1963 109.815 69.6123 110.567C70.0283 111.303 70.5883 111.879 71.2923 112.295C71.9963 112.695 72.7883 112.895 73.6683 112.895ZM78.4203 114.287V110.495L78.5883 107.951L78.3483 105.407V96.4791H80.0523V114.287H78.4203ZM88.9739 114.287L83.3099 97.4871H85.1339L90.4379 113.303H89.5259L94.9979 97.4871H96.6299L102.03 113.303H101.166L106.518 97.4871H108.222L102.558 114.287H100.686L95.5259 99.2871H96.0059L90.8219 114.287H88.9739ZM118.053 114.287V111.503L117.981 111.047V106.391C117.981 105.319 117.677 104.495 117.069 103.919C116.477 103.343 115.589 103.055 114.405 103.055C113.589 103.055 112.813 103.191 112.077 103.463C111.341 103.735 110.717 104.095 110.205 104.543L109.437 103.271C110.077 102.727 110.845 102.311 111.741 102.023C112.637 101.719 113.581 101.567 114.573 101.567C116.205 101.567 117.461 101.975 118.341 102.791C119.237 103.591 119.685 104.815 119.685 106.463V114.287H118.053ZM113.709 114.407C112.765 114.407 111.941 114.255 111.237 113.951C110.549 113.631 110.021 113.199 109.653 112.655C109.285 112.095 109.101 111.455 109.101 110.735C109.101 110.079 109.253 109.487 109.557 108.959C109.877 108.415 110.389 107.983 111.093 107.663C111.813 107.327 112.773 107.159 113.973 107.159H118.317V108.431H114.021C112.805 108.431 111.957 108.647 111.477 109.079C111.013 109.511 110.781 110.047 110.781 110.687C110.781 111.407 111.061 111.983 111.621 112.415C112.181 112.847 112.965 113.063 113.973 113.063C114.933 113.063 115.757 112.847 116.445 112.415C117.149 111.967 117.661 111.327 117.981 110.495L118.365 111.671C118.045 112.503 117.485 113.167 116.685 113.663C115.901 114.159 114.909 114.407 113.709 114.407ZM127.319 114.287L121.727 101.687H123.503L128.639 113.375H127.799L133.007 101.687H134.687L129.071 114.287H127.319ZM142.087 114.407C140.775 114.407 139.623 114.135 138.631 113.591C137.639 113.031 136.863 112.271 136.303 111.311C135.743 110.335 135.463 109.223 135.463 107.975C135.463 106.727 135.727 105.623 136.255 104.663C136.799 103.703 137.535 102.951 138.463 102.407C139.407 101.847 140.463 101.567 141.631 101.567C142.815 101.567 143.863 101.839 144.775 102.383C145.703 102.911 146.431 103.663 146.959 104.639C147.487 105.599 147.751 106.711 147.751 107.975C147.751 108.055 147.743 108.143 147.727 108.239C147.727 108.319 147.727 108.407 147.727 108.503H136.759V107.231H146.815L146.143 107.735C146.143 106.823 145.943 106.015 145.543 105.311C145.159 104.591 144.631 104.031 143.959 103.631C143.287 103.231 142.511 103.031 141.631 103.031C140.767 103.031 139.991 103.231 139.303 103.631C138.615 104.031 138.079 104.591 137.695 105.311C137.311 106.031 137.119 106.855 137.119 107.783V108.047C137.119 109.007 137.327 109.855 137.743 110.591C138.175 111.311 138.767 111.879 139.519 112.295C140.287 112.695 141.159 112.895 142.135 112.895C142.903 112.895 143.615 112.759 144.271 112.487C144.943 112.215 145.519 111.799 145.999 111.239L146.959 112.343C146.399 113.015 145.695 113.527 144.847 113.879C144.015 114.231 143.095 114.407 142.087 114.407Z" fill="white"/>
</g>
<defs>
<filter id="filter0_d_1372_3286" x="0" y="0" width="153" height="128.287" filterUnits="userSpaceOnUse" color-interpolation-filters="sRGB">
<feFlood flood-opacity="0" result="BackgroundImageFix"/>
<feColorMatrix in="SourceAlpha" type="matrix" values="0 0 0 0 0 0 0 0 0 0 0 0 0 0 0 0 0 0 127 0" result="hardAlpha"/>
<feOffset dy="4"/>
<feGaussianBlur stdDeviation="2"/>
<feComposite in2="hardAlpha" operator="out"/>
<feColorMatrix type="matrix" values="0 0 0 0 0 0 0 0 0 0 0 0 0 0 0 0 0 0 0.25 0"/>
<feBlend mode="normal" in2="BackgroundImageFix" result="effect1_dropShadow_1372_3286"/>
<feBlend mode="normal" in="SourceGraphic" in2="effect1_dropShadow_1372_3286" result="shape"/>
</filter>
</defs>
</svg>
