<svg width="25" height="25" viewBox="0 0 25 25" fill="none" xmlns="http://www.w3.org/2000/svg">
<path d="M24.5314 5.06536L19.9669 0.469401C19.6653 0.168767 19.2571 0 18.8316 0C18.4061 0 17.9979 0.168767 17.6963 0.469401L1.51442 16.6565L0.0369726 23.0441C-0.0139942 23.2776 -0.012247 23.5196 0.0420864 23.7523C0.0964198 23.9851 0.201967 24.2027 0.351018 24.3893C0.500068 24.576 0.688856 24.7269 0.903591 24.8311C1.11833 24.9353 1.35358 24.9901 1.59218 24.9916C1.70335 25.0028 1.81537 25.0028 1.92655 24.9916L8.37286 23.5115L24.5314 7.33997C24.8315 7.03781 25 6.6289 25 6.20266C25 5.77642 24.8315 5.36752 24.5314 5.06536V5.06536ZM7.59526 22.1094L1.5533 23.3791L2.92965 17.4433L15.0369 5.36137L19.7025 10.0352L7.59526 22.1094ZM20.7445 8.90571L16.0789 4.23185L18.785 1.5366L23.3728 6.21045L20.7445 8.90571Z" fill="white"/>
</svg>
