<svg width="24" height="24" viewBox="0 0 24 24" fill="none" xmlns="http://www.w3.org/2000/svg">
<path d="M14.754 10C15.72 10 16.504 10.784 16.504 11.75V15H16.5V15.25C16.5 15.4489 16.421 15.6397 16.2803 15.7803C16.1397 15.921 15.9489 16 15.75 16C15.5511 16 15.3603 15.921 15.2197 15.7803C15.079 15.6397 15 15.4489 15 15.25V13H15.004V11.75C15.004 11.6837 14.9777 11.6201 14.9308 11.5732C14.8839 11.5263 14.8203 11.5 14.754 11.5H9.252C9.1857 11.5 9.12211 11.5263 9.07522 11.5732C9.02834 11.6201 9.002 11.6837 9.002 11.75V15H9V15.25C9 15.4489 8.92098 15.6397 8.78033 15.7803C8.63968 15.921 8.44891 16 8.25 16C8.05109 16 7.86032 15.921 7.71967 15.7803C7.57902 15.6397 7.5 15.4489 7.5 15.25V13H7.502V11.75C7.502 10.784 8.285 10 9.252 10H14.754V10ZM20.5 11.75V15.25C20.5 15.4489 20.579 15.6397 20.7197 15.7803C20.8603 15.921 21.0511 16 21.25 16C21.4489 16 21.6397 15.921 21.7803 15.7803C21.921 15.6397 22 15.4489 22 15.25V11.75C22 11.2859 21.8156 10.8408 21.4874 10.5126C21.1592 10.1844 20.7141 10 20.25 10H16.875C17.218 10.415 17.442 10.932 17.493 11.5H20.25C20.3163 11.5 20.3799 11.5263 20.4268 11.5732C20.4737 11.6201 20.5 11.6837 20.5 11.75ZM2 15.25C2 15.4489 2.07902 15.6397 2.21967 15.7803C2.36032 15.921 2.55109 16 2.75 16C2.94891 16 3.13968 15.921 3.28033 15.7803C3.42098 15.6397 3.5 15.4489 3.5 15.25V11.75C3.5 11.6837 3.52634 11.6201 3.57322 11.5732C3.62011 11.5263 3.6837 11.5 3.75 11.5H6.513C6.56274 10.949 6.7782 10.4261 7.131 10H3.75C3.28587 10 2.84075 10.1844 2.51256 10.5126C2.18437 10.8408 2 11.2859 2 11.75V15.25ZM12 3C12.7956 3 13.5587 3.31607 14.1213 3.87868C14.6839 4.44129 15 5.20435 15 6C15 6.79565 14.6839 7.55871 14.1213 8.12132C13.5587 8.68393 12.7956 9 12 9C11.2044 9 10.4413 8.68393 9.87868 8.12132C9.31607 7.55871 9 6.79565 9 6C9 5.20435 9.31607 4.44129 9.87868 3.87868C10.4413 3.31607 11.2044 3 12 3V3ZM12 4.5C11.6022 4.5 11.2206 4.65804 10.9393 4.93934C10.658 5.22064 10.5 5.60218 10.5 6C10.5 6.39782 10.658 6.77936 10.9393 7.06066C11.2206 7.34196 11.6022 7.5 12 7.5C12.3978 7.5 12.7794 7.34196 13.0607 7.06066C13.342 6.77936 13.5 6.39782 13.5 6C13.5 5.60218 13.342 5.22064 13.0607 4.93934C12.7794 4.65804 12.3978 4.5 12 4.5ZM18.5 4C19.163 4 19.7989 4.26339 20.2678 4.73223C20.7366 5.20107 21 5.83696 21 6.5C21 7.16304 20.7366 7.79893 20.2678 8.26777C19.7989 8.73661 19.163 9 18.5 9C17.837 9 17.2011 8.73661 16.7322 8.26777C16.2634 7.79893 16 7.16304 16 6.5C16 5.83696 16.2634 5.20107 16.7322 4.73223C17.2011 4.26339 17.837 4 18.5 4ZM18.5 5.5C18.2348 5.5 17.9804 5.60536 17.7929 5.79289C17.6054 5.98043 17.5 6.23478 17.5 6.5C17.5 6.76522 17.6054 7.01957 17.7929 7.20711C17.9804 7.39464 18.2348 7.5 18.5 7.5C18.7652 7.5 19.0196 7.39464 19.2071 7.20711C19.3946 7.01957 19.5 6.76522 19.5 6.5C19.5 6.23478 19.3946 5.98043 19.2071 5.79289C19.0196 5.60536 18.7652 5.5 18.5 5.5ZM5.5 4C6.16304 4 6.79893 4.26339 7.26777 4.73223C7.73661 5.20107 8 5.83696 8 6.5C8 7.16304 7.73661 7.79893 7.26777 8.26777C6.79893 8.73661 6.16304 9 5.5 9C4.83696 9 4.20107 8.73661 3.73223 8.26777C3.26339 7.79893 3 7.16304 3 6.5C3 5.83696 3.26339 5.20107 3.73223 4.73223C4.20107 4.26339 4.83696 4 5.5 4V4ZM5.5 5.5C5.23478 5.5 4.98043 5.60536 4.79289 5.79289C4.60536 5.98043 4.5 6.23478 4.5 6.5C4.5 6.76522 4.60536 7.01957 4.79289 7.20711C4.98043 7.39464 5.23478 7.5 5.5 7.5C5.76522 7.5 6.01957 7.39464 6.20711 7.20711C6.39464 7.01957 6.5 6.76522 6.5 6.5C6.5 6.23478 6.39464 5.98043 6.20711 5.79289C6.01957 5.60536 5.76522 5.5 5.5 5.5ZM2.75 17C2.55109 17 2.36032 17.079 2.21967 17.2197C2.07902 17.3603 2 17.5511 2 17.75V18.25C2 19.2446 2.39509 20.1984 3.09835 20.9017C3.80161 21.6049 4.75544 22 5.75 22H18.25C19.2446 22 20.1984 21.6049 20.9017 20.9017C21.6049 20.1984 22 19.2446 22 18.25V17.75C22 17.5511 21.921 17.3603 21.7803 17.2197C21.6397 17.079 21.4489 17 21.25 17H2.75ZM5.75 20.5C5.19656 20.5 4.66254 20.296 4.25004 19.927C3.83754 19.5581 3.57549 19.05 3.514 18.5H20.486C20.4245 19.05 20.1625 19.5581 19.75 19.927C19.3375 20.296 18.8034 20.5 18.25 20.5H5.75Z" fill="white"/>
</svg>
