<svg width="24" height="24" viewBox="0 0 24 24" fill="none" xmlns="http://www.w3.org/2000/svg">
<path d="M12.2949 9.01453C11.6794 8.95374 11.0601 9.08469 10.5219 9.38945C9.98365 9.69421 9.55278 10.1579 9.28825 10.717C9.02373 11.2761 8.93848 11.9033 9.04418 12.5127C9.14988 13.1221 9.44137 13.684 9.87873 14.1213C10.3161 14.5587 10.8779 14.8502 11.4874 14.9559C12.0968 15.0616 12.724 14.9763 13.2831 14.7118C13.8422 14.4473 14.3058 14.0164 14.6106 13.4782C14.9154 12.94 15.0463 12.3207 14.9855 11.7052C14.9162 11.0151 14.6105 10.3703 14.1201 9.87995C13.6297 9.38958 12.9849 9.08384 12.2949 9.01453V9.01453ZM19.5183 12C19.5164 12.3261 19.4925 12.6517 19.4466 12.9745L21.5658 14.6367C21.6581 14.7132 21.7203 14.8199 21.7413 14.9379C21.7623 15.056 21.7409 15.1776 21.6807 15.2812L19.6758 18.75C19.615 18.8527 19.5198 18.9305 19.4071 18.9699C19.2944 19.0093 19.1715 19.0076 19.0599 18.9652L16.9552 18.1177C16.8391 18.0714 16.7134 18.0547 16.5893 18.0691C16.4652 18.0834 16.3466 18.1283 16.2441 18.1997C15.9229 18.4209 15.5854 18.6174 15.2344 18.7875C15.1241 18.8411 15.0287 18.9211 14.9566 19.0203C14.8845 19.1196 14.8379 19.2351 14.821 19.3566L14.5055 21.6014C14.4848 21.72 14.4236 21.8276 14.3322 21.906C14.2409 21.9844 14.1252 22.0287 14.0049 22.0312H9.99521C9.87687 22.0292 9.76276 21.9869 9.67167 21.9113C9.58059 21.8357 9.51796 21.7314 9.49412 21.6155L9.17912 19.3739C9.16143 19.2511 9.11366 19.1345 9.04006 19.0346C8.96646 18.9346 8.86931 18.8544 8.75724 18.8011C8.40672 18.6319 8.07033 18.4349 7.75131 18.2119C7.64916 18.1408 7.53094 18.0963 7.4073 18.0823C7.28365 18.0683 7.15847 18.0853 7.04302 18.1317L4.93881 18.9788C4.82729 19.0212 4.70437 19.023 4.5917 18.9837C4.47903 18.9444 4.38382 18.8666 4.32287 18.7641L2.31802 15.2953C2.25775 15.1917 2.23621 15.07 2.25724 14.952C2.27827 14.834 2.34051 14.7272 2.43287 14.6508L4.22396 13.2445C4.32209 13.1666 4.39921 13.0655 4.44832 12.9502C4.49744 12.835 4.51699 12.7093 4.50521 12.5845C4.48834 12.3891 4.47802 12.1941 4.47802 11.9986C4.47802 11.8031 4.48787 11.6109 4.50521 11.4197C4.5157 11.2957 4.49519 11.1711 4.44552 11.057C4.39585 10.9429 4.31858 10.843 4.22068 10.7662L2.43052 9.36C2.33966 9.28317 2.27874 9.17681 2.25843 9.05957C2.23811 8.94232 2.25971 8.82167 2.31943 8.71875L4.32427 5.25C4.38516 5.14734 4.48033 5.06946 4.59301 5.0301C4.70569 4.99074 4.82865 4.99242 4.94021 5.03484L7.0449 5.88234C7.16096 5.92856 7.28668 5.94525 7.41078 5.93094C7.53489 5.91662 7.6535 5.87174 7.75599 5.80031C8.0772 5.57912 8.41474 5.38262 8.76568 5.2125C8.87601 5.15887 8.97145 5.07891 9.04355 4.97966C9.11566 4.88042 9.16222 4.76494 9.17912 4.64344L9.49459 2.39859C9.51531 2.28004 9.57656 2.17236 9.66787 2.09396C9.75918 2.01555 9.87489 1.9713 9.99521 1.96875H14.0049C14.1232 1.9708 14.2374 2.01309 14.3284 2.08867C14.4195 2.16425 14.4821 2.2686 14.506 2.38453L14.821 4.62609C14.8387 4.74894 14.8864 4.86551 14.96 4.96544C15.0336 5.06537 15.1308 5.14557 15.2429 5.19891C15.5934 5.3681 15.9298 5.56514 16.2488 5.78813C16.3509 5.85919 16.4692 5.90373 16.5928 5.91772C16.7165 5.93172 16.8416 5.91473 16.9571 5.86828L19.0613 5.02125C19.1728 4.97879 19.2957 4.97704 19.4084 5.01631C19.5211 5.05558 19.6163 5.13336 19.6772 5.23594L21.6821 8.70469C21.7424 8.80832 21.7639 8.92999 21.7429 9.04802C21.7218 9.16604 21.6596 9.27278 21.5672 9.34922L19.7761 10.7555C19.6776 10.8331 19.6 10.9342 19.5505 11.0494C19.501 11.1647 19.481 11.2905 19.4926 11.4155C19.508 11.6095 19.5183 11.8045 19.5183 12Z" stroke="white" stroke-width="2.5" stroke-linecap="round" stroke-linejoin="round"/>
</svg>
