<svg width="24" height="24" viewBox="0 0 24 24" fill="none" xmlns="http://www.w3.org/2000/svg">
<path d="M2 7.625C2 6.7962 2.32924 6.00134 2.91529 5.41529C3.50134 4.82924 4.2962 4.5 5.125 4.5H18.875C19.7038 4.5 20.4987 4.82924 21.0847 5.41529C21.6708 6.00134 22 6.7962 22 7.625V16.375C22 17.2038 21.6708 17.9987 21.0847 18.5847C20.4987 19.1708 19.7038 19.5 18.875 19.5H5.125C4.2962 19.5 3.50134 19.1708 2.91529 18.5847C2.32924 17.9987 2 17.2038 2 16.375V7.625ZM5.125 5.75C4.62772 5.75 4.15081 5.94754 3.79917 6.29917C3.44754 6.65081 3.25 7.12772 3.25 7.625V9.25H20.75V7.625C20.75 7.12772 20.5525 6.65081 20.2008 6.29917C19.8492 5.94754 19.3723 5.75 18.875 5.75H5.125ZM3.25 16.375C3.25 16.8723 3.44754 17.3492 3.79917 17.7008C4.15081 18.0525 4.62772 18.25 5.125 18.25H18.875C19.3723 18.25 19.8492 18.0525 20.2008 17.7008C20.5525 17.3492 20.75 16.8723 20.75 16.375V10.5H3.25V16.375ZM15.625 14.75C15.4592 14.75 15.3003 14.8158 15.1831 14.9331C15.0658 15.0503 15 15.2092 15 15.375C15 15.5408 15.0658 15.6997 15.1831 15.8169C15.3003 15.9342 15.4592 16 15.625 16H18.375C18.5408 16 18.6997 15.9342 18.8169 15.8169C18.9342 15.6997 19 15.5408 19 15.375C19 15.2092 18.9342 15.0503 18.8169 14.9331C18.6997 14.8158 18.5408 14.75 18.375 14.75H15.625Z" fill="white"/>
</svg>
