<?xml version="1.0" encoding="utf-8"?>
<!-- Generator: Adobe Illustrator 26.0.2, SVG Export Plug-In . SVG Version: 6.00 Build 0)  -->
<svg version="1.1" id="Layer_1" xmlns="http://www.w3.org/2000/svg" xmlns:xlink="http://www.w3.org/1999/xlink" x="0px" y="0px"
	 viewBox="0 0 30 30" enable-background="new 0 0 30 30" xml:space="preserve">
<g>
	<path fill="none" d="M25,10.5c0-0.56-0.11-1.11-0.32-1.63c-0.21-0.52-0.53-0.98-0.93-1.37c-0.84-0.81-1.96-1.26-3.12-1.25
		c-0.7-0.01-1.4,0.14-2.04,0.42c-0.64,0.28-1.22,0.7-1.69,1.22L15,10.06l-1.89-2.18c-0.47-0.52-1.05-0.94-1.69-1.22
		c-0.64-0.28-1.34-0.43-2.04-0.42C8.21,6.23,7.09,6.68,6.25,7.49c-0.4,0.39-0.72,0.86-0.93,1.38C5.1,9.38,5,9.94,5,10.5
		c0.01,0.96,0.23,1.91,0.64,2.79c0.8,1.62,1.88,3.09,3.2,4.34c1.24,1.25,2.66,2.46,3.9,3.48c0.34,0.28,0.69,0.57,1.04,0.85
		l0.22,0.18c0.33,0.27,0.68,0.55,1.01,0.83l0.02-0.02l0.01-0.01h0.01l0.01-0.01h0.01l0.02-0.02l0.05-0.04l0.01-0.01l0.01-0.01h0.01
		l0.01-0.01L16,22.16l0.22-0.18c0.35-0.29,0.7-0.57,1.04-0.85c1.23-1.02,2.66-2.23,3.9-3.48c1.31-1.25,2.39-2.72,3.2-4.34
		C24.77,12.43,24.99,11.47,25,10.5z"/>
	<path d="M15,26.25c-0.81-0.72-1.72-1.46-2.68-2.25h-0.01c-3.39-2.78-7.24-5.92-8.94-9.68c-0.56-1.2-0.85-2.5-0.87-3.82
		c0-0.9,0.18-1.79,0.52-2.61c0.35-0.83,0.85-1.58,1.5-2.21c0.64-0.63,1.4-1.12,2.23-1.45c0.83-0.33,1.73-0.49,2.62-0.47
		c1.48,0,2.92,0.43,4.16,1.23c0.55,0.35,1.04,0.78,1.47,1.27c0.43-0.49,0.92-0.91,1.47-1.27c1.24-0.8,2.68-1.23,4.16-1.23
		c0.9-0.02,1.79,0.14,2.62,0.47c0.83,0.33,1.59,0.83,2.23,1.45c0.64,0.63,1.15,1.38,1.5,2.21c0.35,0.83,0.52,1.72,0.52,2.61
		c-0.01,1.32-0.31,2.63-0.87,3.83c-1.7,3.76-5.54,6.9-8.94,9.67l-0.01,0.01C16.72,24.79,15.81,25.54,15,26.25L15,26.25z M9.38,6.25
		C8.21,6.23,7.09,6.68,6.25,7.49c-0.4,0.39-0.72,0.86-0.93,1.38C5.1,9.38,5,9.94,5,10.5c0.01,0.96,0.23,1.91,0.64,2.78
		c0.8,1.62,1.88,3.09,3.2,4.34c1.24,1.25,2.66,2.46,3.9,3.48c0.34,0.28,0.69,0.57,1.04,0.85l0.22,0.18
		c0.33,0.27,0.68,0.56,1.01,0.83l0.02-0.02l0.01-0.01h0.01l0.01-0.01h0.01l0.02-0.02l0.05-0.04l0.01-0.01l0.01-0.01h0.01l0.01-0.01
		L16,22.16l0.22-0.18c0.35-0.29,0.7-0.57,1.04-0.85c1.23-1.02,2.66-2.23,3.9-3.48c1.31-1.25,2.39-2.72,3.2-4.34
		c0.42-0.88,0.64-1.84,0.65-2.81c0-0.56-0.11-1.11-0.32-1.63c-0.21-0.52-0.53-0.98-0.93-1.37c-0.84-0.81-1.96-1.26-3.12-1.25
		c-0.7-0.01-1.4,0.14-2.04,0.42c-0.64,0.28-1.22,0.7-1.69,1.22L15,10.06l-1.89-2.18c-0.47-0.52-1.05-0.94-1.69-1.22
		C10.77,6.38,10.08,6.24,9.38,6.25z"/>
</g>
</svg>
