<svg id="Layer_1" data-name="Layer 1" xmlns="http://www.w3.org/2000/svg" viewBox="0 0 25 22.51"><path d="M25,10.5a4.3,4.3,0,0,0-.32-1.63,4.16,4.16,0,0,0-.93-1.37,4.36,4.36,0,0,0-3.13-1.25,4.78,4.78,0,0,0-2,.42,5,5,0,0,0-1.69,1.21L15,10.06,13.11,7.88a5,5,0,0,0-1.69-1.21,4.83,4.83,0,0,0-2.05-.42A4.39,4.39,0,0,0,6.25,7.49a4.11,4.11,0,0,0-.93,1.37A4.2,4.2,0,0,0,5,10.5a6.69,6.69,0,0,0,.64,2.78,15.31,15.31,0,0,0,3.2,4.34c1.23,1.25,2.66,2.46,3.89,3.48l1,.85.22.18L15,23l0,0h0l0,0,.05,0h0l.83-.68.22-.18,1-.85c1.23-1,2.66-2.23,3.89-3.48a15.31,15.31,0,0,0,3.2-4.34A6.68,6.68,0,0,0,25,10.5Z" transform="translate(-2.5 -3.74)" fill="#fff"/><path d="M15,26.25c-.81-.72-1.72-1.46-2.68-2.25h0c-3.4-2.78-7.24-5.92-8.94-9.68A9.19,9.19,0,0,1,2.5,10.5,6.92,6.92,0,0,1,3,7.88,6.72,6.72,0,0,1,9.38,3.75,7.65,7.65,0,0,1,13.53,5,7.19,7.19,0,0,1,15,6.25,7.19,7.19,0,0,1,16.47,5a7.65,7.65,0,0,1,4.15-1.22,6.77,6.77,0,0,1,2.63.47A6.73,6.73,0,0,1,27.5,10.5a9.19,9.19,0,0,1-.87,3.82c-1.7,3.77-5.54,6.91-8.94,9.68h0c-1,.78-1.87,1.53-2.68,2.25Zm-5.62-20A4.4,4.4,0,0,0,6.25,7.49a4.11,4.11,0,0,0-.93,1.37A4.2,4.2,0,0,0,5,10.5a6.69,6.69,0,0,0,.64,2.78,15.31,15.31,0,0,0,3.2,4.34c1.23,1.25,2.66,2.46,3.89,3.48l1,.85.22.18L15,23l0,0h0l0,0,.05,0h0l.83-.68.22-.18,1-.85c1.23-1,2.66-2.23,3.89-3.48a15.31,15.31,0,0,0,3.2-4.34A6.68,6.68,0,0,0,25,10.5a4.3,4.3,0,0,0-.32-1.63,4.16,4.16,0,0,0-.93-1.37,4.36,4.36,0,0,0-3.13-1.25,4.78,4.78,0,0,0-2,.42,5,5,0,0,0-1.69,1.21L15,10.06,13.11,7.88a5,5,0,0,0-1.69-1.21A4.81,4.81,0,0,0,9.38,6.25Z" transform="translate(-2.5 -3.74)"/></svg>