<svg width="30" height="30" viewBox="0 0 30 30" fill="none" xmlns="http://www.w3.org/2000/svg">
<path d="M11.25 7.5002V10.0002H2.5V7.5002H11.25ZM11.25 13.7502V16.2502H2.5V13.7502H11.25ZM22.5 20.0002V22.5002H2.5V20.0002H22.5ZM24.1375 14.3752C24.6875 13.5252 25 12.5002 25 11.3877C25 8.26269 22.5 5.7627 19.375 5.7627C16.25 5.7627 13.75 8.26269 13.75 11.3877C13.75 14.5127 16.25 17.0127 19.375 17.0127C20.4625 17.0127 21.4875 16.7002 22.35 16.1627L26.25 20.0002L27.9875 18.2627L24.1375 14.3752ZM19.375 14.5127C17.65 14.5127 16.25 13.1252 16.25 11.3877C16.25 9.65019 17.65 8.2627 19.375 8.2627C20.2038 8.2627 20.9987 8.59194 21.5847 9.17799C22.1708 9.76404 22.5 10.5589 22.5 11.3877C22.5 12.2165 22.1708 13.0114 21.5847 13.5974C20.9987 14.1835 20.2038 14.5127 19.375 14.5127Z" fill="#6EFFFF"/>
</svg>
