<svg width="30" height="30" viewBox="0 0 30 30" fill="none" xmlns="http://www.w3.org/2000/svg">
<path d="M17.5 15C17.5 15.925 17 16.725 16.25 17.15V27.5H13.75V17.15C13 16.7125 12.5 15.925 12.5 15C12.5 13.625 13.625 12.5 15 12.5C16.375 12.5 17.5 13.625 17.5 15ZM15 7.5C10.8625 7.5 7.5 10.8625 7.5 15C7.5 17.175 8.4375 19.1375 9.925 20.5L11.7 18.725C11.1671 18.2615 10.7397 17.6892 10.4465 17.0467C10.1532 16.4041 10.001 15.7063 10 15C10 12.2375 12.2375 10 15 10C17.7625 10 20 12.2375 20 15C20 16.4875 19.3375 17.8125 18.3 18.725L20.075 20.5C20.8392 19.8021 21.4496 18.9526 21.8671 18.0056C22.2847 17.0586 22.5002 16.0349 22.5 15C22.5 10.8625 19.1375 7.5 15 7.5ZM15 2.5C8.1 2.5 2.5 8.1 2.5 15C2.5 18.5625 4 21.7625 6.3875 24.05L8.1625 22.275C7.16624 21.3428 6.37162 20.2163 5.82769 18.9651C5.28376 17.7138 5.00207 16.3644 5 15C5 9.4875 9.4875 5 15 5C20.5125 5 25 9.4875 25 15C25 17.8625 23.775 20.45 21.8375 22.275L23.6125 24.05C26 21.7625 27.5 18.5625 27.5 15C27.5 8.1 21.9 2.5 15 2.5Z" fill="#6EFFFF"/>
</svg>
