<svg width="30" height="30" viewBox="0 0 30 30" fill="none" xmlns="http://www.w3.org/2000/svg">
<path d="M23.9805 4.52394C23.9453 4.31243 23.8651 4.11093 23.7454 3.93304C23.6256 3.75514 23.4692 3.60498 23.2865 3.49268C23.1038 3.38038 22.8992 3.30854 22.6864 3.28202C22.4736 3.2555 22.2576 3.27491 22.053 3.33894L11.553 6.61944C11.2477 6.71476 10.9808 6.90516 10.7914 7.16287C10.602 7.42058 10.4999 7.7321 10.5 8.05194V20.2499C9.8242 19.7431 8.99705 19.4793 8.15257 19.5012C7.3081 19.5232 6.49577 19.8296 5.8472 20.3709C5.19864 20.9122 4.75183 21.6566 4.57917 22.4835C4.40651 23.3104 4.51811 24.1714 4.8959 24.927C5.27369 25.6826 5.89553 26.2885 6.66067 26.6465C7.4258 27.0045 8.28942 27.0937 9.11158 26.8996C9.93374 26.7055 10.6663 26.2395 11.1905 25.5771C11.7148 24.9147 12 24.0947 12 23.2499V12.5519L22.5 9.26994V17.2499C21.8242 16.7431 20.997 16.4793 20.1526 16.5012C19.3081 16.5232 18.4958 16.8296 17.8472 17.3709C17.1986 17.9122 16.7518 18.6566 16.5792 19.4835C16.4065 20.3104 16.5181 21.1714 16.8959 21.927C17.2737 22.6826 17.8955 23.2885 18.6607 23.6465C19.4258 24.0045 20.2894 24.0937 21.1116 23.8996C21.9337 23.7055 22.6663 23.2395 23.1905 22.5771C23.7148 21.9147 24 21.0947 24 20.2499V4.76994C24 4.68594 23.9925 4.60494 23.9805 4.52394Z" fill="white"/>
</svg>
