<svg width="30" height="30" viewBox="0 0 30 30" fill="red" xmlns="http://www.w3.org/2000/svg">
<path d="M15 26.2499C14.1938 25.5349 13.2825 24.7912 12.3188 23.9999H12.3063C8.91251 21.2249 5.06626 18.0849 3.36751 14.3224C2.81001 13.1249 2.51376 11.8224 2.50001 10.4999C2.49816 9.60242 2.67565 8.71357 3.02207 7.88559C3.36848 7.05761 3.87683 6.30719 4.51727 5.6784C5.15772 5.0496 5.91734 4.5551 6.75153 4.22394C7.58572 3.89277 8.47768 3.73162 9.37501 3.74994C10.8508 3.75227 12.2948 4.17879 13.535 4.97869C14.08 5.3324 14.573 5.76026 15 6.24994C15.43 5.76244 15.9225 5.33494 16.4663 4.97869C17.7059 4.17863 19.1496 3.75209 20.625 3.74994C21.5224 3.73162 22.4143 3.89277 23.2485 4.22394C24.0827 4.5551 24.8423 5.0496 25.4828 5.6784C26.1232 6.30719 26.6315 7.05761 26.978 7.88559C27.3244 8.71357 27.5019 9.60242 27.5 10.4999C27.4873 11.8235 27.1915 13.1289 26.6325 14.3287C24.9338 18.0912 21.0888 21.2299 17.695 23.9999L17.6825 24.0099C16.7175 24.7962 15.8075 25.5399 15.0013 26.2599L15 26.2499ZM9.37501 6.24994C8.21065 6.23537 7.0876 6.68099 6.25001 7.48994C5.85058 7.88229 5.5341 8.35093 5.31936 8.86801C5.10463 9.38509 4.99603 9.94006 5.00001 10.4999C5.01376 11.4624 5.23251 12.4124 5.64001 13.2849C6.44192 14.9083 7.52392 16.3775 8.83626 17.6249C10.075 18.8749 11.5 20.0849 12.7325 21.1024C13.0738 21.3837 13.4213 21.6674 13.7688 21.9512L13.9875 22.1299C14.3213 22.4024 14.6663 22.6849 15 22.9624L15.0163 22.9474L15.0238 22.9412H15.0313L15.0425 22.9324H15.055L15.0775 22.9137L15.1288 22.8724L15.1375 22.8649L15.1513 22.8549H15.1588L15.17 22.8449L16 22.1637L16.2175 21.9849C16.5688 21.6987 16.9163 21.4149 17.2575 21.1337C18.49 20.1162 19.9163 18.9074 21.155 17.6512C22.4676 16.4044 23.5496 14.9356 24.3513 13.3124C24.7663 12.4324 24.9888 11.4724 25.0013 10.4999C25.0037 9.94166 24.8942 9.38856 24.6793 8.87329C24.4644 8.35803 24.1484 7.89105 23.75 7.49994C22.914 6.68734 21.7908 6.23804 20.625 6.24994C19.9217 6.24396 19.225 6.38689 18.5809 6.66933C17.9367 6.95177 17.3596 7.36732 16.8875 7.88869L15 10.0637L13.1125 7.88869C12.6404 7.36732 12.0633 6.95177 11.4191 6.66933C10.775 6.38689 10.0783 6.24396 9.37501 6.24994Z" fill="red"/>
</svg>
