<svg width="30" height="30" viewBox="0 0 30 30" fill="none" xmlns="http://www.w3.org/2000/svg">
<path d="M15.4167 24.7512C14.7448 24.1553 13.9854 23.5355 13.1823 22.8762H13.1719C10.3438 20.5637 7.13855 17.947 5.72293 14.8116C5.25835 13.8137 5.01147 12.7283 5.00001 11.6262C4.99847 10.8782 5.14638 10.1375 5.43506 9.44755C5.72373 8.75757 6.14736 8.13222 6.68106 7.60822C7.21476 7.08422 7.84778 6.67214 8.54294 6.39617C9.2381 6.1202 9.9814 5.9859 10.7292 6.00117C11.959 6.00311 13.1623 6.35855 14.1958 7.02513C14.65 7.31989 15.0609 7.67643 15.4167 8.0845C15.775 7.67825 16.1854 7.322 16.6386 7.02513C17.6716 6.35841 18.8747 6.00296 20.1042 6.00117C20.852 5.9859 21.5953 6.1202 22.2904 6.39617C22.9856 6.67214 23.6186 7.08422 24.1523 7.60822C24.686 8.13222 25.1096 8.75757 25.3983 9.44755C25.687 10.1375 25.8349 10.8782 25.8333 11.6262C25.8227 12.7291 25.5762 13.817 25.1104 14.8168C23.6948 17.9522 20.4906 20.5678 17.6625 22.8762L17.6521 22.8845C16.8479 23.5397 16.0896 24.1595 15.4177 24.7595L15.4167 24.7512ZM10.7292 8.0845C9.75888 8.07236 8.823 8.44372 8.12501 9.11784C7.79215 9.44479 7.52841 9.83533 7.34947 10.2662C7.17052 10.6971 7.08002 11.1596 7.08335 11.6262C7.0948 12.4283 7.2771 13.2199 7.61668 13.947C8.28494 15.2998 9.1866 16.5241 10.2802 17.5637C11.3125 18.6053 12.5 19.6137 13.5271 20.4616C13.8115 20.696 14.1011 20.9324 14.3906 21.1689L14.5729 21.3178C14.8511 21.5449 15.1386 21.7803 15.4167 22.0116L15.4302 21.9991L15.4365 21.9939H15.4427L15.4521 21.9866H15.4625L15.4813 21.971L15.524 21.9366L15.5313 21.9303L15.5427 21.922H15.549L15.5583 21.9137L16.25 21.346L16.4313 21.197C16.724 20.9585 17.0136 20.722 17.2979 20.4876C18.325 19.6397 19.5136 18.6324 20.5458 17.5855C21.6397 16.5466 22.5414 15.3226 23.2094 13.9699C23.5552 13.2366 23.7406 12.4366 23.7511 11.6262C23.7531 11.1609 23.6618 10.7 23.4827 10.2706C23.3037 9.84124 23.0403 9.4521 22.7083 9.12617C22.0117 8.449 21.0757 8.07459 20.1042 8.0845C19.5181 8.07952 18.9375 8.19863 18.4007 8.43399C17.8639 8.66936 17.383 9.01566 16.9896 9.45013L15.4167 11.2626L13.8438 9.45013C13.4503 9.01566 12.9694 8.66936 12.4326 8.43399C11.8958 8.19863 11.3153 8.07952 10.7292 8.0845Z" fill="white"/>
</svg>
