<svg width="30" height="30" viewBox="0 0 30 30" fill="none" xmlns="http://www.w3.org/2000/svg">
<g filter="url(#filter0_d_1372_2575)">
<path d="M9.17 20.9985C9.3766 20.4131 9.75974 19.9062 10.2666 19.5477C10.7735 19.1891 11.3791 18.9966 12 18.9966C12.6209 18.9966 13.2265 19.1891 13.7334 19.5477C14.2403 19.9062 14.6234 20.4131 14.83 20.9985H25V22.998H14.83C14.6234 23.5834 14.2403 24.0903 13.7334 24.4489C13.2265 24.8075 12.6209 25 12 25C11.3791 25 10.7735 24.8075 10.2666 24.4489C9.75974 24.0903 9.3766 23.5834 9.17 22.998H5V20.9985H9.17ZM15.17 14.0002C15.3766 13.4149 15.7597 12.9079 16.2666 12.5494C16.7735 12.1908 17.3791 11.9983 18 11.9983C18.6209 11.9983 19.2265 12.1908 19.7334 12.5494C20.2403 12.9079 20.6234 13.4149 20.83 14.0002H25V15.9998H20.83C20.6234 16.5851 20.2403 17.0921 19.7334 17.4506C19.2265 17.8092 18.6209 18.0017 18 18.0017C17.3791 18.0017 16.7735 17.8092 16.2666 17.4506C15.7597 17.0921 15.3766 16.5851 15.17 15.9998H5V14.0002H15.17ZM9.17 7.00196C9.3766 6.41657 9.75974 5.90966 10.2666 5.55111C10.7735 5.19255 11.3791 5 12 5C12.6209 5 13.2265 5.19255 13.7334 5.55111C14.2403 5.90966 14.6234 6.41657 14.83 7.00196H25V9.00147H14.83C14.6234 9.58686 14.2403 10.0938 13.7334 10.4523C13.2265 10.8109 12.6209 11.0034 12 11.0034C11.3791 11.0034 10.7735 10.8109 10.2666 10.4523C9.75974 10.0938 9.3766 9.58686 9.17 9.00147H5V7.00196H9.17ZM12 9.00147C12.2652 9.00147 12.5196 8.89614 12.7071 8.70865C12.8946 8.52116 13 8.26687 13 8.00171C13 7.73656 12.8946 7.48227 12.7071 7.29478C12.5196 7.10729 12.2652 7.00196 12 7.00196C11.7348 7.00196 11.4804 7.10729 11.2929 7.29478C11.1054 7.48227 11 7.73656 11 8.00171C11 8.26687 11.1054 8.52116 11.2929 8.70865C11.4804 8.89614 11.7348 9.00147 12 9.00147V9.00147ZM18 15.9998C18.2652 15.9998 18.5196 15.8944 18.7071 15.7069C18.8946 15.5194 19 15.2652 19 15C19 14.7348 18.8946 14.4806 18.7071 14.2931C18.5196 14.1056 18.2652 14.0002 18 14.0002C17.7348 14.0002 17.4804 14.1056 17.2929 14.2931C17.1054 14.4806 17 14.7348 17 15C17 15.2652 17.1054 15.5194 17.2929 15.7069C17.4804 15.8944 17.7348 15.9998 18 15.9998V15.9998ZM12 22.998C12.2652 22.998 12.5196 22.8927 12.7071 22.7052C12.8946 22.5177 13 22.2634 13 21.9983C13 21.7331 12.8946 21.4788 12.7071 21.2914C12.5196 21.1039 12.2652 20.9985 12 20.9985C11.7348 20.9985 11.4804 21.1039 11.2929 21.2914C11.1054 21.4788 11 21.7331 11 21.9983C11 22.2634 11.1054 22.5177 11.2929 22.7052C11.4804 22.8927 11.7348 22.998 12 22.998V22.998Z" fill="white"/>
</g>
<defs>
<filter id="filter0_d_1372_2575" x="-4" y="0" width="38" height="38" filterUnits="userSpaceOnUse" color-interpolation-filters="sRGB">
<feFlood flood-opacity="0" result="BackgroundImageFix"/>
<feColorMatrix in="SourceAlpha" type="matrix" values="0 0 0 0 0 0 0 0 0 0 0 0 0 0 0 0 0 0 127 0" result="hardAlpha"/>
<feOffset dy="4"/>
<feGaussianBlur stdDeviation="2"/>
<feComposite in2="hardAlpha" operator="out"/>
<feColorMatrix type="matrix" values="0 0 0 0 0 0 0 0 0 0 0 0 0 0 0 0 0 0 0.25 0"/>
<feBlend mode="normal" in2="BackgroundImageFix" result="effect1_dropShadow_1372_2575"/>
<feBlend mode="normal" in="SourceGraphic" in2="effect1_dropShadow_1372_2575" result="shape"/>
</filter>
</defs>
</svg>
