<svg width="30" height="30" viewBox="0 0 30 30" fill="none" xmlns="http://www.w3.org/2000/svg">
<g filter="url(#filter0_d_1372_2573)">
<path d="M18.7814 7.35933C18.7813 6.57124 19.0583 5.80821 19.564 5.20373C20.0698 4.59926 20.772 4.19183 21.5478 4.05274C22.3236 3.91364 23.1236 4.05174 23.8079 4.44286C24.4922 4.83398 25.0171 5.45323 25.2909 6.19225C25.5646 6.93128 25.5698 7.74302 25.3054 8.48546C25.0411 9.2279 24.524 9.85377 23.8448 10.2536C23.1656 10.6533 22.3673 10.8016 21.5898 10.6723C20.8123 10.5431 20.105 10.1446 19.5916 9.54664L10.5645 13.7386C10.772 14.3961 10.772 15.1017 10.5645 15.7593L19.5916 19.9512C20.1343 19.3202 20.8919 18.913 21.7177 18.8087C22.5434 18.7044 23.3785 18.9103 24.0611 19.3865C24.7437 19.8627 25.2252 20.5753 25.4122 21.3863C25.5993 22.1972 25.4785 23.0487 25.0735 23.7757C24.6684 24.5028 24.0079 25.0535 23.2198 25.3213C22.4317 25.5891 21.5723 25.5549 20.8081 25.2252C20.0438 24.8955 19.4292 24.2939 19.0833 23.537C18.7374 22.78 18.6849 21.9216 18.9359 21.1281L9.90873 16.9362C9.46185 17.457 8.8662 17.8284 8.2019 18.0004C7.53759 18.1725 6.83652 18.1371 6.19297 17.8989C5.54942 17.6606 4.99428 17.2311 4.60222 16.6679C4.21016 16.1048 4 15.4351 4 14.7489C4 14.0628 4.21016 13.3931 4.60222 12.8299C4.99428 12.2668 5.54942 11.8372 6.19297 11.599C6.83652 11.3607 7.53759 11.3253 8.2019 11.4974C8.8662 11.6695 9.46185 12.0409 9.90873 12.5616L18.9359 8.36968C18.8331 8.04275 18.781 7.70202 18.7814 7.35933V7.35933Z" fill="#F8F8F8"/>
</g>
<defs>
<filter id="filter0_d_1372_2573" x="-4" y="0" width="38" height="38" filterUnits="userSpaceOnUse" color-interpolation-filters="sRGB">
<feFlood flood-opacity="0" result="BackgroundImageFix"/>
<feColorMatrix in="SourceAlpha" type="matrix" values="0 0 0 0 0 0 0 0 0 0 0 0 0 0 0 0 0 0 127 0" result="hardAlpha"/>
<feOffset dy="4"/>
<feGaussianBlur stdDeviation="2"/>
<feComposite in2="hardAlpha" operator="out"/>
<feColorMatrix type="matrix" values="0 0 0 0 0 0 0 0 0 0 0 0 0 0 0 0 0 0 0.25 0"/>
<feBlend mode="normal" in2="BackgroundImageFix" result="effect1_dropShadow_1372_2573"/>
<feBlend mode="normal" in="SourceGraphic" in2="effect1_dropShadow_1372_2573" result="shape"/>
</filter>
</defs>
</svg>
