<svg xmlns="http://www.w3.org/2000/svg" fill="none" viewBox="0 0 308 58"><path fill="#fff" d="M38.4 31a10.8 10.8 0 0 1-8.7 10.7c-.9.2-1.7.1-2.5.1h-2.9V37h4c.6 0 1 0 1.6-.2l1.3-1a5.5 5.5 0 0 0 2.2-4.5c0-3.3-2.6-6-5.8-6a6 6 0 0 0-5.9 6V47A10.4 10.4 0 0 1 14 57.7 10.7 10.7 0 0 1 1 44.4c.6-2.4 2.1-4.6 4.2-6 1.4-.9 3-1.4 4.6-1.5h4.6v5h-3.9c-2.4 0-4.4 2.1-5 4.3l-.2 1.5c0 3 2.4 5 5.3 5.7 2.7.6 6.3-2 6.4-5.3V29.6a10.8 10.8 0 0 1 10.7-9.4c5.8 0 10.7 4.8 10.7 10.8Z"/><path fill="#fff" d="M58.4 32.3a33 33 0 0 1-8 21.4c-.5.6-1 1.6-1.8 2-1.5.8-3.4-.7-3.4-2.2 0-1.3 1.3-2.4 2.1-3.3a27.4 27.4 0 0 0-21-45.1c-3.3 0-6.5.5-9.6 1.5a26.2 26.2 0 0 0-9.3 5.9c-.8.6-1.5 1.3-2.7 1-1-.3-1.8-1.2-1.9-2.2 0-.7.4-1.2.9-1.7a29 29 0 0 1 8-6.2 29.7 29.7 0 0 1 15-3.4 32 32 0 0 1 31.7 32.3Z"/><path fill="#fff" d="M48.5 32.4a22.8 22.8 0 0 1-6.5 16c-.4.3-.9.5-1.4.5a2.5 2.5 0 0 1-2.5-2.5c0-.4 0-.8.2-1.2l1-1c2.8-3.2 4.4-7.3 4.4-11.8 0-9.7-7.8-17.6-17.4-17.6a17 17 0 0 0-11.9 4.7l-.6.6a2.5 2.5 0 0 1-3.5-3.4l.6-.6c4-4 9.4-6.3 15.4-6.3a22.4 22.4 0 0 1 22.2 22.6ZM93.6 42.4c-2 0-3.9-.3-5.7-.9-1.8-.5-3.2-1.3-4.2-2.2l1.6-3.6A13.6 13.6 0 0 0 96.8 38c.8-.2 1.4-.6 1.8-1.1.4-.5.6-1 .6-1.7 0-.8-.3-1.4-.8-1.8-.6-.5-1.3-.9-2.2-1.2l-3-.7-3.1-.9-3-1.2a6.5 6.5 0 0 1-2-2.1 6 6 0 0 1-.9-3.3 6.8 6.8 0 0 1 4.4-6.5 18 18 0 0 1 10.2-.5c1.5.4 2.8 1 4 1.7l-1.5 3.6a13.4 13.4 0 0 0-7-2 9 9 0 0 0-3.1.5 4 4 0 0 0-1.8 1.2c-.4.5-.6 1.1-.6 1.7 0 .8.3 1.4.8 2a6 6 0 0 0 2.2 1 62.5 62.5 0 0 0 6.1 1.6c1.1.3 2 .7 3 1.2a5.8 5.8 0 0 1 2.9 5.4c0 1.3-.4 2.6-1.1 3.7-.8 1.1-1.9 2-3.4 2.8-1.5.6-3.4 1-5.7 1Zm23-.1c-2 0-3.7-.5-5.2-1.3a9.7 9.7 0 0 1-5-8.6 9.6 9.6 0 0 1 5-8.6c1.5-.8 3.3-1.2 5.2-1.2 2 0 3.8.4 5.3 1.2 1.6.9 2.8 2 3.7 3.5a9.7 9.7 0 0 1 1.3 5 9.7 9.7 0 0 1-5 8.7c-1.5.8-3.3 1.3-5.3 1.3Zm0-3.9a6 6 0 0 0 3-.7 5 5 0 0 0 2-2.1c.5-1 .8-2 .8-3.2 0-1.3-.3-2.3-.8-3.2a5 5 0 0 0-2-2.1c-.9-.5-1.8-.7-3-.7a5.3 5.3 0 0 0-5 2.8c-.4.9-.7 2-.7 3.2 0 1.2.3 2.3.8 3.2a5.3 5.3 0 0 0 5 2.8Zm22.7 3.9c-1.6 0-3-.3-4.3-1a6.7 6.7 0 0 1-2.9-2.8c-.7-1.2-1-2.8-1-4.7v-11h4.5V33c0 1.8.3 3 1.1 4 .8.8 2 1.2 3.4 1.2 1 0 2-.2 2.7-.7.8-.4 1.4-1 1.8-1.9.5-.9.7-2 .7-3.2v-9.7h4.5V42h-4.3v-5.2l.8 1.6a6.7 6.7 0 0 1-2.9 2.9c-1.2.6-2.6 1-4 1Zm27.3-19.7a9 9 0 0 1 4.1.9c1.2.6 2.2 1.5 2.9 2.7.7 1.3 1 2.8 1 4.8v11h-4.5V31.6c0-1.7-.4-3-1.2-3.9-.8-.8-1.9-1.2-3.3-1.2-1 0-2 .2-2.8.6-.9.5-1.5 1.1-2 2a7 7 0 0 0-.6 3.2V42h-4.5V22.8h4.3V28l-.8-1.6a6.7 6.7 0 0 1 3-2.8c1.2-.7 2.7-1 4.4-1Zm22 19.7c-2 0-3.6-.5-5-1.3-1.5-.8-2.7-2-3.5-3.4-.9-1.5-1.3-3.2-1.3-5.2s.4-3.7 1.3-5.2a9 9 0 0 1 3.4-3.4 10.2 10.2 0 0 1 9.3-.2c1.3.7 2.3 1.8 3 3.2a12 12 0 0 1 1.2 5.6c0 2.2-.4 4-1.1 5.5a7.4 7.4 0 0 1-3 3.3c-1.3.7-2.7 1-4.4 1Zm.5-3.9c1 0 2-.2 2.8-.7.9-.5 1.6-1.2 2-2.1.6-1 .9-2 .9-3.2 0-1.3-.3-2.3-.8-3.2-.5-1-1.2-1.6-2-2.1-.9-.5-1.9-.7-3-.7-1 0-2 .2-2.9.7-.8.5-1.5 1.2-2 2-.5 1-.8 2-.8 3.3 0 1.2.3 2.3.8 3.2.5.9 1.2 1.6 2 2 1 .6 1.9.8 3 .8Zm5.8 3.6v-4.5l.2-5.1-.4-5.2v-12h4.5V42h-4.3Zm16.6 0L203 16.8h4.9l7.4 22.8H213l7.8-22.8h4.3l7.5 22.8h-2.3l7.6-22.8h4.5L234 42h-5l-6.8-20.6h1.3l-7 20.6h-5Zm44.6 0v-3.9l-.2-.8v-6.8a4 4 0 0 0-1.2-3c-.8-.8-2-1.2-3.6-1.2-1 0-2.1.2-3.2.5-1 .3-2 .8-2.6 1.4l-1.8-3.3c1-.8 2.3-1.3 3.7-1.7 1.4-.4 2.9-.6 4.4-.6 2.8 0 5 .6 6.5 2 1.5 1.3 2.3 3.3 2.3 6.1V42H256Zm-6 .3c-1.4 0-2.7-.3-3.8-.8-1-.5-2-1.2-2.5-2a5.7 5.7 0 0 1-.1-5.9c.5-.9 1.4-1.6 2.5-2a12 12 0 0 1 4.7-.8h5.6v3h-5.3c-1.5 0-2.5.2-3 .7-.6.5-.8 1-.8 1.8s.3 1.5 1 2a5.7 5.7 0 0 0 5.7 0c.8-.6 1.4-1.3 1.8-2.3l.7 2.7a5 5 0 0 1-2.3 2.6c-1.1.6-2.5 1-4.2 1Zm20.8-.3-8.2-19.2h4.7l7 17h-2.3l7.4-17h4.3L275.6 42h-4.7Zm24.2.3c-2.1 0-4-.5-5.6-1.3-1.6-.9-2.8-2-3.7-3.5a10 10 0 0 1-1.3-5.1c0-2 .4-3.6 1.3-5 .8-1.6 2-2.7 3.5-3.6 1.5-.8 3.2-1.2 5.1-1.2 2 0 3.6.4 5 1.2 1.5.8 2.7 2 3.5 3.4a10.5 10.5 0 0 1 1.2 6.6h-16v-3h13.6l-1.7 1c0-1.1-.2-2.1-.7-3a5.2 5.2 0 0 0-2-2c-.8-.4-1.8-.6-2.9-.6-1 0-2 .2-2.9.7-.8.5-1.4 1.1-2 2-.4.8-.6 1.8-.6 3v.7c0 1.2.3 2.2.8 3 .5 1 1.3 1.6 2.2 2.1 1 .5 2 .7 3.3.7 1.1 0 2-.1 3-.5.8-.3 1.6-.8 2.3-1.6l2.4 2.8c-.9 1-2 1.8-3.3 2.4-1.3.5-2.8.8-4.5.8Z"/></svg>