<svg width="26" height="26" viewBox="0 0 26 26" fill="none" xmlns="http://www.w3.org/2000/svg">
<path d="M4 9.4659V9.46572C3.9999 8.87374 4.11894 8.28743 4.35044 7.74098C4.58194 7.1945 4.9214 6.69854 5.34947 6.28235C5.77756 5.86614 6.28568 5.53809 6.84438 5.31785C7.4031 5.0976 8.00087 4.98973 8.60266 5.00077L8.61446 5.00099L8.62626 5.00092C9.35366 4.9971 10.0733 5.14643 10.7374 5.4387C11.4015 5.73096 11.9945 6.15931 12.4774 6.69477L13.22 7.51803L13.9626 6.69477C14.4455 6.15931 15.0385 5.73096 15.7026 5.4387C16.3667 5.14643 17.0863 4.9971 17.8137 5.00092L17.8255 5.00099L17.8373 5.00077C18.4391 4.98973 19.0369 5.0976 19.5956 5.31785C20.1543 5.53809 20.6624 5.86614 21.0905 6.28235C21.5186 6.69854 21.8581 7.1945 22.0896 7.74098C22.3211 8.28743 22.4401 8.87374 22.44 9.46572V9.4659C22.44 11.7658 21.0524 13.8983 19.0084 15.955C18 16.9698 16.8708 17.9279 15.7457 18.8464C15.4281 19.1056 15.1085 19.3636 14.7919 19.6191C14.2517 20.0551 13.7203 20.4839 13.223 20.9C12.6984 20.4575 12.1359 20.0021 11.5647 19.5397C11.2769 19.3066 10.9868 19.0718 10.6983 18.8359C9.57271 17.9157 8.44308 16.9587 7.4338 15.9454C5.3885 13.8922 4 11.7668 4 9.4659Z" stroke="white" stroke-width="2"/>
</svg>
