<svg width="26" height="26" viewBox="0 0 26 26" fill="none" xmlns="http://www.w3.org/2000/svg">
<path d="M3 21.2862V19.013H22.67V21.2862H3ZM3 15.6035V13.3303H22.67V15.6035H3ZM3 10.5364V4.37903C3.00473 4.31853 3.0244 4.26019 3.05721 4.20937C3.09001 4.15855 3.13491 4.11687 3.18777 4.08814C3.24064 4.05941 3.29979 4.04455 3.35981 4.04493C3.41982 4.04531 3.47879 4.0609 3.5313 4.0903L3.52916 4.08958L9.55454 7.15858C9.61051 7.1856 9.6578 7.22805 9.69098 7.28104C9.72416 7.33402 9.74189 7.39541 9.74211 7.45812C9.74233 7.52084 9.72505 7.58235 9.69224 7.63558C9.65944 7.68881 9.61245 7.73159 9.55667 7.75902L9.55454 7.75974L3.52916 10.8259C3.47597 10.8535 3.41707 10.868 3.35727 10.8682H3.34307C3.25478 10.8682 3.1699 10.8337 3.10603 10.7721C3.04216 10.7104 3.0042 10.6263 3 10.5371V10.5364ZM11.9915 8.78394V6.51074H22.6693V8.78394H11.9915Z" fill="white"/>
</svg>
