<svg width="26" height="26" viewBox="0 0 26 26" fill="none" xmlns="http://www.w3.org/2000/svg">
<path d="M21.6667 2.1665C22.2414 2.1665 22.7925 2.39478 23.1988 2.80111C23.6051 3.20743 23.8334 3.75853 23.8334 4.33317V17.3332C23.8334 17.9078 23.6051 18.4589 23.1988 18.8652C22.7925 19.2716 22.2414 19.4998 21.6667 19.4998H6.50008L2.16675 23.8332V4.33317C2.16675 3.75853 2.39502 3.20743 2.80135 2.80111C3.20768 2.39478 3.75878 2.1665 4.33341 2.1665H21.6667ZM4.33341 4.33317V18.6007L5.60091 17.3332H21.6667V4.33317H4.33341ZM6.50008 7.58317H19.5001V9.74984H6.50008V7.58317ZM6.50008 11.9165H16.2501V14.0832H6.50008V11.9165Z" fill="white"/>
</svg>
