<svg width="26" height="26" viewBox="0 0 26 26" fill="none" xmlns="http://www.w3.org/2000/svg">
<g clip-path="url(#clip0_332_1769)">
<path d="M24.2811 12.6607C21.8472 8.16125 17.5789 5.43848 12.8555 5.43848C8.13219 5.43848 3.85663 8.16125 1.44441 12.6607L1.24219 13.0001L1.42997 13.3468C3.86385 17.8463 8.13219 20.569 12.8555 20.569C17.5789 20.569 21.8544 17.8824 24.2811 13.3468L24.4689 13.0001L24.2811 12.6607ZM12.8555 19.0885C8.78941 19.0885 5.05552 16.8207 2.88885 13.0001C5.05552 9.17959 8.78941 6.91181 12.8555 6.91181C16.9216 6.91181 20.6122 9.18681 22.815 13.0001C20.6122 16.8207 16.9144 19.0885 12.8555 19.0885Z" fill="white"/>
<path d="M13.065 8.06703C12.0858 8.07417 11.1306 8.37136 10.3202 8.92104C9.50971 9.47072 8.88033 10.2483 8.51153 11.1554C8.14272 12.0626 8.05102 13.0587 8.24801 14.018C8.445 14.9772 8.92184 15.8566 9.61831 16.545C10.3148 17.2334 11.1996 17.7 12.1611 17.8858C13.1226 18.0716 14.1176 17.9683 15.0204 17.589C15.9232 17.2096 16.6934 16.5712 17.2336 15.7544C17.7738 14.9376 18.0598 13.9791 18.0556 12.9998C18.0527 12.348 17.9213 11.7031 17.6688 11.1021C17.4163 10.5011 17.0476 9.95592 16.584 9.49768C16.1204 9.03944 15.571 8.67719 14.9671 8.43169C14.3632 8.18619 13.7169 8.06227 13.065 8.06703ZM13.065 16.5315C12.3733 16.5243 11.6991 16.313 11.1272 15.9239C10.5552 15.5349 10.1109 14.9855 9.85015 14.3448C9.58938 13.7041 9.52374 13.0006 9.66148 12.3228C9.79922 11.6449 10.1342 11.0228 10.6243 10.5347C11.1145 10.0465 11.7379 9.71409 12.4163 9.57912C13.0948 9.44415 13.798 9.51266 14.4376 9.77604C15.0773 10.0394 15.6248 10.4859 16.0115 11.0595C16.3982 11.633 16.6068 12.3081 16.6111 12.9998C16.6131 13.4653 16.5225 13.9266 16.3448 14.3569C16.1671 14.7872 15.9058 15.178 15.5759 15.5065C15.246 15.835 14.8542 16.0948 14.4232 16.2707C13.9922 16.4467 13.5305 16.5353 13.065 16.5315Z" fill="white"/>
</g>
<defs>
<clipPath id="clip0_332_1769">
<rect width="26" height="26" fill="white"/>
</clipPath>
</defs>
</svg>
