<svg xmlns="http://www.w3.org/2000/svg" fill="white" width="30" height="30" viewBox="0 0 30 30">
    <path d="M19.7 16a5.4 5.4 0 0 1-4.35 5.35c-.45.1-.85.05-1.25.05h-1.45V19h2c.3 0 .5 0 .8-.1l.65-.5a2.75 2.75 0 0 0 1.1-2.25c0-1.65-1.3-3-2.9-3a3 3 0 0 0-2.95 3V24a5.2 5.2 0 0 1-6.63 5.33A5.35 5.35 0 0 1 1 22.7c.3-1.2 1.05-2.3 2.1-3 .7-.45 1.5-.7 2.3-.75h2.3v2.5H5.75c-1.2 0-2.2 1.05-2.5 2.15l-.1.75c0 1.5 1.2 2.5 2.65 2.85 1.35.3 3.15-1 3.2-2.65V15.3a5.4 5.4 0 0 1 5.35-4.7A5.4 5.4 0 0 1 19.7 16Z"/>
    <path d="M29.7 16.65a16.5 16.5 0 0 1-4 10.7c-.25.3-.5.8-.9 1-.75.4-1.7-.35-1.7-1.1 0-.65.65-1.2 1.05-1.65a13.7 13.7 0 0 0-10.5-22.55c-1.65 0-3.25.25-4.8.75A13.1 13.1 0 0 0 4.2 6.75c-.4.3-.75.65-1.35.5-.5-.15-.9-.6-.95-1.1 0-.35.2-.6.45-.85A14.85 14.85 0 0 1 13.85.5 16 16 0 0 1 29.7 16.65Z"/>
    <path d="M24.75 16.7a11.4 11.4 0 0 1-3.25 8c-.2.15-.45.25-.7.25a1.25 1.25 0 0 1-1.25-1.25c0-.2 0-.4.1-.6l.5-.5a8.88 8.88 0 0 0 2.2-5.9c0-4.85-3.9-8.8-8.7-8.8a8.5 8.5 0 0 0-5.95 2.35l-.3.3a1.25 1.25 0 0 1-1.75-1.7l.3-.3c2-2 4.7-3.15 7.7-3.15a11.2 11.2 0 0 1 11.1 11.3Z"/>
</svg>
