<svg width="35" height="35" viewBox="0 0 35 35" fill="none" xmlns="http://www.w3.org/2000/svg">
<path d="M25.5459 18.3101C25.5322 15.979 26.5884 14.2222 28.7212 12.9268C27.5283 11.2178 25.7236 10.2778 23.3447 10.0967C21.0923 9.91895 18.6279 11.4092 17.7256 11.4092C16.772 11.4092 14.5913 10.1582 12.8755 10.1582C9.33447 10.2129 5.57129 12.9814 5.57129 18.6143C5.57129 20.2788 5.87549 21.998 6.48389 23.7686C7.29736 26.0996 10.23 31.811 13.2891 31.7188C14.8887 31.6812 16.02 30.584 18.1016 30.584C20.1216 30.584 21.1675 31.7188 22.9517 31.7188C26.0381 31.6743 28.6904 26.4824 29.4629 24.1445C25.3237 22.1929 25.5459 18.4297 25.5459 18.3101V18.3101ZM21.9536 7.88525C23.6865 5.82764 23.5293 3.95459 23.478 3.28125C21.9468 3.37012 20.1763 4.32373 19.168 5.49609C18.0571 6.75391 17.4043 8.30908 17.5444 10.0625C19.1987 10.189 20.7095 9.33789 21.9536 7.88525V7.88525Z" fill="white"/>
</svg>
