<svg width="35" height="35" viewBox="0 0 35 35" fill="none" xmlns="http://www.w3.org/2000/svg">
<path d="M30.5477 12.1115C30.533 11.0069 30.3262 9.91342 29.9366 8.87979C29.5988 8.00793 29.0828 7.21612 28.4217 6.55496C27.7605 5.8938 26.9687 5.37782 26.0969 5.04C25.0765 4.65698 23.9986 4.44987 22.9089 4.4275C21.506 4.36479 21.0612 4.34729 17.5 4.34729C13.9387 4.34729 13.4823 4.34729 12.0896 4.4275C11.0004 4.45004 9.92299 4.65714 8.90311 5.04C8.03111 5.37759 7.23918 5.89348 6.57799 6.55467C5.9168 7.21586 5.4009 8.00779 5.06331 8.87979C4.67953 9.89936 4.47287 10.977 4.45227 12.0662C4.38956 13.4706 4.37061 13.9154 4.37061 17.4767C4.37061 21.0379 4.37061 21.4929 4.45227 22.8871C4.47415 23.9779 4.67977 25.0542 5.06331 26.0765C5.40147 26.9482 5.91775 27.7398 6.57916 28.4007C7.24057 29.0616 8.03257 29.5773 8.90456 29.9148C9.92165 30.3132 10.9993 30.5351 12.091 30.571C13.4954 30.6337 13.9402 30.6527 17.5014 30.6527C21.0627 30.6527 21.5191 30.6527 22.9119 30.571C24.0015 30.5496 25.0795 30.343 26.0998 29.96C26.9714 29.6218 27.763 29.1057 28.4241 28.4446C29.0852 27.7834 29.6013 26.9918 29.9396 26.1202C30.3231 25.0994 30.5287 24.0231 30.5506 22.9308C30.6133 21.5279 30.6323 21.0831 30.6323 17.5204C30.6294 13.9592 30.6294 13.5071 30.5477 12.1115V12.1115ZM17.4912 24.2112C13.7666 24.2112 10.7494 21.194 10.7494 17.4694C10.7494 13.7448 13.7666 10.7275 17.4912 10.7275C19.2793 10.7275 20.9941 11.4378 22.2585 12.7021C23.5228 13.9665 24.2331 15.6813 24.2331 17.4694C24.2331 19.2574 23.5228 20.9723 22.2585 22.2366C20.9941 23.5009 19.2793 24.2112 17.4912 24.2112V24.2112ZM24.5014 12.0502C24.2949 12.0504 24.0904 12.0099 23.8996 11.9309C23.7088 11.852 23.5354 11.7362 23.3894 11.5902C23.2434 11.4442 23.1276 11.2708 23.0486 11.08C22.9697 10.8891 22.9292 10.6846 22.9294 10.4781C22.9294 10.2718 22.97 10.0674 23.049 9.87679C23.1279 9.68615 23.2437 9.51292 23.3896 9.36701C23.5355 9.22109 23.7087 9.10535 23.8994 9.02638C24.09 8.94741 24.2944 8.90677 24.5007 8.90677C24.7071 8.90677 24.9114 8.94741 25.102 9.02638C25.2927 9.10535 25.4659 9.22109 25.6118 9.36701C25.7577 9.51292 25.8735 9.68615 25.9525 9.87679C26.0314 10.0674 26.0721 10.2718 26.0721 10.4781C26.0721 11.3473 25.3691 12.0502 24.5014 12.0502Z" fill="#D5D5D5"/>
<path d="M17.4912 21.8487C19.9099 21.8487 21.8706 19.888 21.8706 17.4694C21.8706 15.0507 19.9099 13.09 17.4912 13.09C15.0725 13.09 13.1118 15.0507 13.1118 17.4694C13.1118 19.888 15.0725 21.8487 17.4912 21.8487Z" fill="#D5D5D5"/>
</svg>
