<svg width="35" height="35" viewBox="0 0 35 35" fill="none" xmlns="http://www.w3.org/2000/svg">
<g clip-path="url(#clip0_647_3555)">
<path d="M35.0001 14.3493C31.5606 14.3565 28.2055 13.418 25.4087 11.6662V23.8834C25.4078 26.1462 24.6173 28.3547 23.1431 30.2138C21.6689 32.0729 19.5812 33.4938 17.1592 34.2867C14.7371 35.0795 12.0961 35.2065 9.58938 34.6505C7.08264 34.0946 4.82961 32.8823 3.13156 31.1757C1.43352 29.4691 0.371382 27.3495 0.0871853 25.1005C-0.197011 22.8514 0.310277 20.5801 1.54122 18.5901C2.77216 16.6001 4.66808 14.9864 6.97546 13.9647C9.28285 12.943 11.8917 12.5621 14.4532 12.8728V19.0176C13.2811 18.695 12.0224 18.7047 10.8569 19.0453C9.69147 19.386 8.67883 20.0402 7.96361 20.9145C7.2484 21.7887 6.86719 22.8384 6.87443 23.9136C6.88167 24.9887 7.27698 26.0344 8.00391 26.9012C8.73085 27.7681 9.75223 28.4118 10.9222 28.7404C12.0922 29.069 13.3509 29.0658 14.5186 28.7311C15.6863 28.3964 16.7034 27.7474 17.4244 26.8769C18.1455 26.0063 18.5337 24.9586 18.5337 23.8834V0H25.4087C25.4039 0.508006 25.4526 1.01532 25.554 1.51553C25.7929 2.63216 26.2896 3.69442 27.0138 4.63732C27.738 5.58022 28.6744 6.38394 29.7657 6.99932C31.3184 7.89762 33.1387 8.37642 35.0001 8.37608V14.3493Z" fill="#D5D5D5"/>
</g>
<defs>
<clipPath id="clip0_647_3555">
<rect width="35" height="35" fill="white"/>
</clipPath>
</defs>
</svg>
