<svg width="35" height="35" viewBox="0 0 35 35" fill="none" xmlns="http://www.w3.org/2000/svg">
<path d="M31.5002 4.68039C30.2306 5.60267 28.8249 6.30807 27.3373 6.76942C26.5388 5.82391 25.4777 5.15375 24.2974 4.84959C23.117 4.54543 21.8745 4.62194 20.7378 5.06877C19.601 5.51561 18.625 6.3112 17.9416 7.34796C17.2582 8.38471 16.9005 9.61261 16.9168 10.8656V12.231C14.587 12.2932 12.2784 11.761 10.1966 10.6819C8.11478 9.6027 6.32445 8.01006 4.98501 6.04577C4.98501 6.04577 -0.318019 18.3342 11.6138 23.7958C8.88344 25.7045 5.63086 26.6616 2.3335 26.5265C14.2653 33.3534 28.8486 26.5265 28.8486 10.8246C28.8474 10.4443 28.8119 10.0649 28.7426 9.69134C30.0957 8.31708 31.0505 6.58197 31.5002 4.68039V4.68039Z" fill="#D5D5D5"/>
</svg>
